<?xml version="1.0" standalone="no"?>
<!DOCTYPE svg PUBLIC "-//W3C//DTD SVG 20010904//EN"
 "http://www.w3.org/TR/2001/REC-SVG-20010904/DTD/svg10.dtd">
<svg version="1.0" xmlns="http://www.w3.org/2000/svg"
 width="1280.000000pt" height="1280.000000pt" viewBox="0 0 1280.000000 1280.000000"
 preserveAspectRatio="xMidYMid meet">

<g transform="translate(0.000000,1280.000000) scale(0.100000,-0.100000)"
fill="#000000" stroke="none">
<path d="M3340 8890 l0 -1340 540 0 540 0 0 800 0 800 795 0 795 0 0 540 0
540 -1335 0 -1335 0 0 -1340z"/>
<path d="M5282 7138 c-29 -194 -53 -356 -52 -360 0 -5 45 -8 100 -8 55 0 100
3 100 8 0 24 61 496 65 500 2 2 9 -16 15 -39 7 -24 36 -125 65 -224 29 -99 56
-195 60 -212 l7 -33 67 0 68 0 68 238 c76 267 80 278 89 236 5 -28 56 -445 56
-464 0 -6 43 -10 101 -10 l101 0 -6 28 c-3 15 -26 164 -51 332 -25 168 -48
317 -51 333 l-6 27 -133 0 -133 0 -14 -47 c-8 -27 -30 -103 -49 -170 -18 -68
-36 -123 -39 -123 -3 0 -18 48 -34 106 -16 58 -37 135 -48 170 l-19 64 -137 0
-138 0 -52 -352z"/>
<path d="M6903 7418 l-53 -10 0 -64 0 -64 -41 0 -40 0 3 -62 3 -63 36 -3 37
-3 4 -137 c3 -115 7 -143 23 -172 30 -51 75 -70 168 -70 l77 0 0 54 0 53 -38
6 c-72 12 -77 21 -80 151 l-4 116 55 0 54 0 7 46 c11 86 13 84 -54 84 l-60 0
0 75 c0 85 5 82 -97 63z"/>
<path d="M6396 7279 c-52 -13 -105 -54 -122 -95 -17 -41 -19 -246 -3 -295 16
-47 46 -78 99 -103 38 -17 62 -20 150 -19 145 3 164 9 168 58 2 21 1 48 -2 60
-5 20 -9 22 -48 14 -24 -4 -76 -8 -115 -9 -81 0 -113 18 -113 65 l0 25 146 0
147 0 -5 94 c-6 110 -24 149 -87 184 -47 27 -153 37 -215 21z m132 -122 c6 -7
12 -26 14 -42 l3 -30 -67 -3 c-68 -3 -68 -3 -68 24 0 40 27 64 70 64 21 0 42
-6 48 -13z"/>
<path d="M7260 7263 c0 -11 -3 -41 -6 -67 l-7 -46 100 0 c64 0 103 -4 111 -12
7 -7 12 -29 12 -50 l0 -38 -90 0 c-140 0 -180 -30 -180 -133 0 -69 19 -111 61
-132 39 -21 135 -21 185 0 35 14 40 14 50 0 8 -11 29 -15 73 -15 l63 0 -4 199
c-4 174 -7 202 -24 232 -35 60 -72 73 -216 77 -122 4 -128 3 -128 -15z m208
-340 c-3 -35 -6 -39 -41 -47 -47 -12 -71 0 -75 38 -4 31 20 44 81 45 38 1 38
1 35 -36z"/>
<path d="M3340 5380 l0 -1340 1335 0 1335 0 0 540 0 540 -795 0 -795 0 0 800
0 800 -540 0 -540 0 0 -1340z"/>
<path d="M8450 5920 l0 -800 -800 0 -800 0 0 -540 0 -540 1340 0 1340 0 0
1340 0 1340 -540 0 -540 0 0 -800z"/>
<path d="M2115 3318 c-2 -7 -8 -47 -14 -88 -6 -41 -27 -181 -46 -310 -20 -129
-49 -327 -66 -440 -16 -113 -33 -215 -36 -227 l-5 -23 158 0 159 0 44 378 c24
207 47 381 51 385 7 8 24 -47 141 -458 33 -115 67 -232 75 -258 l16 -48 101 3
101 3 110 383 c61 210 113 382 116 382 3 0 25 -165 49 -367 23 -203 45 -376
48 -385 4 -16 20 -18 155 -18 l150 0 -6 38 c-3 20 -35 231 -71 467 -36 237
-71 466 -78 510 l-12 80 -207 3 -206 2 -73 -260 c-40 -143 -76 -260 -79 -260
-3 0 -32 93 -63 208 -32 114 -65 231 -73 260 l-16 52 -209 0 c-159 0 -211 -3
-214 -12z"/>
<path d="M6586 3319 c-76 -12 -172 -64 -206 -111 -41 -57 -63 -131 -64 -218
-1 -63 4 -84 27 -132 41 -83 113 -125 315 -184 110 -32 158 -58 177 -95 15
-28 15 -33 -2 -62 -31 -53 -62 -62 -203 -62 -107 0 -212 12 -284 32 -17 5 -18
0 -12 -83 13 -159 8 -151 82 -163 103 -18 311 -24 397 -12 108 15 168 44 222
103 102 114 107 329 9 420 -43 39 -113 71 -264 118 -108 34 -141 49 -167 75
-37 37 -40 55 -17 95 38 63 143 81 333 56 68 -9 126 -14 129 -11 5 5 -15 215
-21 221 -1 2 -41 8 -87 13 -97 13 -292 13 -364 0z"/>
<path d="M4528 3222 l-98 -16 0 -98 0 -98 -60 0 -60 0 0 -100 0 -100 59 0 60
0 3 -212 c3 -200 4 -216 26 -261 17 -34 37 -55 70 -75 44 -25 56 -27 180 -30
l132 -4 0 86 0 86 -32 0 c-54 0 -106 19 -128 47 -18 24 -20 40 -20 194 l0 169
79 0 78 0 6 38 c3 20 9 65 13 100 l7 62 -92 0 -91 0 0 115 c0 103 -2 115 -17
114 -10 -1 -62 -9 -115 -17z"/>
<path d="M3732 3004 c-95 -25 -145 -63 -185 -139 -30 -57 -38 -336 -12 -432
23 -85 83 -153 163 -184 71 -27 244 -37 364 -20 128 18 118 8 118 118 0 94 0
95 -22 90 -61 -16 -221 -29 -283 -24 -85 7 -115 33 -115 98 l0 39 222 0 221 0
-6 123 c-7 135 -23 196 -66 248 -70 84 -252 123 -399 83z m181 -175 c29 -13
47 -48 47 -89 l0 -30 -100 0 -100 0 0 44 c0 36 5 48 26 65 30 23 88 28 127 10z"/>
<path d="M7430 3010 c-63 -14 -118 -56 -154 -120 l-31 -55 0 -235 c0 -200 2
-239 17 -265 42 -76 113 -105 257 -106 53 0 112 5 131 10 19 6 38 11 42 11 5
0 8 -85 8 -188 l0 -188 115 20 115 20 2 538 c2 296 2 543 0 548 -2 6 -44 10
-98 10 -92 0 -94 0 -100 -26 -5 -18 -11 -23 -23 -18 -112 47 -199 61 -281 44z
m250 -220 c19 -10 20 -21 20 -174 l0 -163 -51 -16 c-63 -21 -92 -21 -128 -2
-40 20 -51 61 -51 182 0 110 13 162 47 182 21 14 133 7 163 -9z"/>
<path d="M9970 2996 c-47 -13 -95 -27 -107 -31 -18 -6 -25 -2 -34 19 -12 25
-15 26 -105 26 l-94 0 -2 -390 -3 -390 117 0 118 0 2 267 3 266 70 24 c39 13
97 27 130 31 l60 7 -8 82 c-5 46 -13 81 -17 78 -5 -3 -6 4 -3 15 7 27 -17 26
-127 -4z"/>
<path d="M10421 3004 c-98 -26 -169 -91 -191 -173 -14 -52 -15 -348 -1 -398
21 -77 69 -134 144 -172 64 -33 75 -35 187 -39 104 -4 254 9 296 25 11 4 14
28 14 100 0 94 0 95 -23 89 -36 -9 -198 -26 -247 -26 -102 0 -150 35 -150 110
l0 30 221 0 221 0 -4 133 c-5 147 -17 189 -71 245 -18 19 -48 42 -67 52 -79
40 -228 51 -329 24z m204 -189 c18 -18 25 -35 25 -65 l0 -40 -100 0 -100 0 0
30 c0 35 23 86 42 93 7 3 35 6 61 6 38 1 53 -4 72 -24z"/>
<path d="M5062 3003 c-10 -8 -31 -119 -32 -175 0 -16 13 -18 145 -18 142 0
147 -1 170 -25 20 -19 25 -34 25 -75 l0 -50 -127 0 c-71 0 -145 -5 -165 -10
-89 -25 -134 -103 -126 -219 7 -96 37 -146 108 -184 51 -27 61 -29 135 -24 54
3 102 13 142 29 l62 25 5 -23 c6 -23 10 -24 107 -24 l101 0 -4 293 c-6 327
-12 362 -74 416 -53 47 -119 62 -299 67 -88 3 -166 1 -173 -3z m308 -542 l0
-48 -59 -17 c-43 -12 -66 -14 -85 -6 -29 11 -49 50 -39 77 13 38 25 43 104 43
l79 0 0 -49z"/>
<path d="M8052 2698 c3 -292 5 -316 24 -358 26 -56 71 -96 127 -111 60 -16
200 -6 267 20 68 26 76 26 83 1 5 -18 14 -20 106 -20 l101 0 0 390 0 390 -120
0 -120 0 0 -281 0 -280 -35 -15 c-19 -7 -59 -14 -88 -14 -44 0 -59 5 -81 25
l-26 24 0 271 0 270 -121 0 -121 0 4 -312z"/>
<path d="M8967 3003 c-3 -5 -9 -51 -13 -101 l-7 -92 136 0 c139 0 182 -9 191
-39 12 -39 16 -87 9 -97 -5 -8 -58 -13 -148 -16 -119 -3 -146 -7 -180 -25 -60
-32 -88 -89 -88 -177 1 -165 89 -246 253 -233 36 2 92 14 125 26 73 26 75 26
75 1 0 -19 7 -20 101 -20 l100 0 -3 303 c-3 267 -5 307 -22 345 -41 96 -110
121 -352 129 -106 4 -173 2 -177 -4z m321 -522 c8 -51 -5 -70 -62 -86 -84 -24
-126 -5 -126 59 0 45 24 57 109 54 71 -3 76 -4 79 -27z"/>
</g>
</svg>
