<svg width="1104" height="402" viewBox="0 0 1104 402" fill="none" xmlns="http://www.w3.org/2000/svg">
<rect width="1104" height="402" rx="24" fill="white"/>
<g clip-path="url(#clip0_17_849)">
<rect x="44" y="30" width="1015" height="342" rx="16" fill="white"/>
<path fill-rule="evenodd" clip-rule="evenodd" d="M244.5 324.3H186.9L82.4004 102.6C87.4004 106.7 93.8004 109.2 100.8 109.2C116.6 109.2 129.5 96.3 129.5 80.4V80.2H129.8L244.5 324.3ZM216.9 296.8C216.9 289.8 211.2 284.1 204.1 284.1C197.1 284.1 191.4 289.8 191.4 296.8C191.4 303.9 197.1 309.6 204.1 309.6C211.2 309.6 216.9 303.9 216.9 296.8Z" fill="#333333"/>
<path fill-rule="evenodd" clip-rule="evenodd" d="M351.7 111.5V132.5H264.5V324.3H263.4L212.2 215.5V80.2H320.3L351.7 111.5ZM251.7 202.2C251.7 195.2 246 189.4 238.9 189.4C231.8 189.4 226.1 195.2 226.1 202.2C226.1 209.3 231.8 215 238.9 215C246 215 251.7 209.3 251.7 202.2ZM338.7 106.3C338.7 99.3 333 93.6 325.9 93.6C318.9 93.6 313.2 99.3 313.2 106.3C313.2 113.4 318.9 119.1 325.9 119.1C333 119.1 338.7 113.4 338.7 106.3Z" fill="#29ABE2"/>
<path fill-rule="evenodd" clip-rule="evenodd" d="M422.1 228.6H377L411.5 301.9H411.4C411.133 301.633 410.833 301.367 410.5 301.1C410.166 300.833 409.833 300.6 409.5 300.4C409.166 300.133 408.833 299.9 408.5 299.7C408.1 299.5 407.733 299.3 407.4 299.1C407.066 298.9 406.733 298.7 406.4 298.5C406.333 298.433 406.233 298.4 406.1 298.4C405.833 298.2 405.533 298.033 405.2 297.9C404.866 297.767 404.533 297.633 404.2 297.5C404.066 297.433 403.966 297.367 403.9 297.3C403.566 297.167 403.233 297.033 402.9 296.9C401.033 296.233 399.133 295.767 397.2 295.5C396.933 295.433 396.7 295.4 396.5 295.4C396.233 295.333 395.966 295.3 395.7 295.3C395.5 295.3 395.266 295.267 395 295.2C394.266 295.2 393.533 295.2 392.8 295.2C392.266 295.2 391.766 295.2 391.3 295.2C391.1 295.2 390.9 295.2 390.7 295.2C389.5 295.333 388.3 295.5 387.1 295.7C386.9 295.767 386.7 295.8 386.5 295.8C385.9 295.933 385.333 296.1 384.8 296.3C384.533 296.367 384.3 296.433 384.1 296.5C383.833 296.567 383.6 296.633 383.4 296.7C383.2 296.767 383 296.833 382.8 296.9C382.533 296.967 382.266 297.067 382 297.2C381.8 297.267 381.6 297.367 381.4 297.5C381.133 297.567 380.9 297.633 380.7 297.7C379.833 298.1 379 298.533 378.2 299C377.8 299.267 377.4 299.5 377 299.7C377 299.767 377 299.8 377 299.8C376.4 300.133 375.8 300.533 375.2 301C373.533 302.267 372 303.7 370.6 305.3C370.466 305.5 370.333 305.667 370.2 305.8C369.866 306.2 369.566 306.567 369.3 306.9C369.033 307.3 368.766 307.7 368.5 308.1C368.366 308.3 368.233 308.5 368.1 308.7C367.433 309.7 366.833 310.733 366.3 311.8C365.9 312.6 365.533 313.467 365.2 314.4C365.133 314.6 365.066 314.833 365 315.1C364.733 315.767 364.533 316.467 364.4 317.2C364.333 317.4 364.266 317.633 364.2 317.9C364.133 318.1 364.066 318.333 364 318.6C363.933 319.067 363.866 319.533 363.8 320C363.733 320.533 363.666 321.067 363.6 321.6C363.6 321.8 363.566 322.033 363.5 322.3L319.3 228.6H282.6V176.3H369.8V80.4H390.4L422.1 112.2V228.6ZM409.1 201.3C409.1 194.3 403.4 188.6 396.3 188.6C389.2 188.6 383.5 194.3 383.5 201.3C383.5 208.4 389.2 214.1 396.3 214.1C403.4 214.1 409.1 208.4 409.1 201.3Z" fill="#333333"/>
<path fill-rule="evenodd" clip-rule="evenodd" d="M100.6 113.1C82.4002 113.1 67.7002 98.4 67.7002 80.2C67.7002 62 82.4002 47.3 100.6 47.3C118.8 47.3 133.5 62 133.5 80.2C133.5 98.4 118.8 113.1 100.6 113.1ZM126.4 80.2C126.4 66 114.9 54.5 100.6 54.5C86.4002 54.5 74.9002 66 74.9002 80.2C74.9002 94.5 86.4002 106 100.6 106C114.9 106 126.4 94.5 126.4 80.2V80.2Z" fill="#29ABE2"/>
<path d="M196.5 288.9L108.4 109.1L114.8 105.9L202.9 285.8L196.5 288.9Z" fill="#29ABE2"/>
<path fill-rule="evenodd" clip-rule="evenodd" d="M204.1 313.1C195.1 313.1 187.8 305.8 187.8 296.8C187.8 287.8 195.1 280.5 204.1 280.5C213.2 280.5 220.5 287.8 220.5 296.8C220.5 305.8 213.2 313.1 204.1 313.1ZM213.3 296.8C213.3 291.7 209.2 287.6 204.1 287.6C199 287.6 194.9 291.7 194.9 296.8C194.9 301.9 199 306 204.1 306C209.2 306 213.3 301.9 213.3 296.8Z" fill="#29ABE2"/>
<path fill-rule="evenodd" clip-rule="evenodd" d="M212.2 80.2H351.7V132.5H212.2V80.2ZM338.6 106.4C338.6 99.3 332.9 93.6 325.9 93.6C318.8 93.6 313.1 99.3 313.1 106.4C313.1 113.4 318.8 119.1 325.9 119.1C332.9 119.1 338.6 113.4 338.6 106.4Z" fill="#29ABE2"/>
<path fill-rule="evenodd" clip-rule="evenodd" d="M238.8 218.6C229.8 218.6 222.5 211.3 222.5 202.2C222.5 193.2 229.8 185.9 238.8 185.9C247.9 185.9 255.2 193.2 255.2 202.2C255.2 211.3 247.9 218.6 238.8 218.6ZM248 202.2C248 197.2 243.9 193 238.8 193C233.7 193 229.6 197.2 229.6 202.2C229.6 207.3 233.7 211.4 238.8 211.4C243.9 211.4 248 207.3 248 202.2Z" fill="#333333"/>
<path d="M242.4 189.5H235.3V102.7H242.4V189.5Z" fill="#333333"/>
<path d="M238.8 102.8H313V109.9H238.8V102.8Z" fill="#333333"/>
<path fill-rule="evenodd" clip-rule="evenodd" d="M325.9 122.7C316.8 122.7 309.5 115.4 309.5 106.4C309.5 97.3 316.8 90 325.9 90C334.9 90 342.2 97.3 342.2 106.4C342.2 115.4 334.9 122.7 325.9 122.7ZM335.1 106.4C335.1 101.3 330.9 97.2 325.9 97.2C320.8 97.2 316.7 101.3 316.7 106.4C316.7 111.5 320.8 115.6 325.9 115.6C330.9 115.6 335.1 111.5 335.1 106.4Z" fill="#333333"/>
<path fill-rule="evenodd" clip-rule="evenodd" d="M396.3 217.7C387.3 217.7 380 210.4 380 201.3C380 192.3 387.3 185 396.3 185C405.3 185 412.6 192.3 412.6 201.3C412.6 210.4 405.3 217.7 396.3 217.7ZM405.5 201.3C405.5 196.3 401.4 192.2 396.3 192.2C391.2 192.2 387.1 196.3 387.1 201.3C387.1 206.4 391.2 210.5 396.3 210.5C401.4 210.5 405.5 206.4 405.5 201.3Z" fill="#29ABE2"/>
<path fill-rule="evenodd" clip-rule="evenodd" d="M392.8 357.2C374.6 357.2 359.9 342.4 359.9 324.3C359.9 310.9 367.8 299 380.2 293.9L380.9 293.6C384.7 292.1 388.7 291.4 392.8 291.4C410.9 291.4 425.7 306.1 425.7 324.3C425.7 342.4 410.9 357.2 392.8 357.2ZM382.5 300.6C373.1 304.7 367 314 367 324.3C367 338.5 378.6 350 392.8 350C407 350 418.5 338.5 418.5 324.3C418.5 310.1 407 298.5 392.8 298.5C389.4 298.5 386 299.2 382.9 300.5L382.5 300.6Z" fill="#29ABE2"/>
<path d="M378.3 298.6L335.4 202.8L341.9 199.9L384.8 295.7L378.3 298.6Z" fill="#29ABE2"/>
<path d="M385.1 197.8V204.9H336.4L333.2 197.9V197.8H385.1Z" fill="#29ABE2"/>
<path d="M356.7 233L350.2 235.8L336.4 204.9L333.2 197.9V197.8H340.9L344.1 204.9L356.7 233Z" fill="#29ABE2"/>
<path d="M453.1 324.3V80.4H458.1V324.3H453.1Z" fill="#29ABE2"/>
<path d="M488.9 108.2H718.3V217H488.9V108.2Z" fill="#333333"/>
<path d="M570.5 115L558.5 205.3H522.9L509.3 115H534.1C536.966 139.867 539 160.9 540.2 178.1C541.466 160.7 542.766 145.267 544.1 131.8L545.7 115H570.5Z" fill="white"/>
<path d="M574.5 115H597.9V205.3H574.5V115Z" fill="white"/>
<path d="M607.4 115H646.5V133.1H630.8V150.2H645.5V167.4H630.8V187.2H648.1V205.3H607.4V115Z" fill="white"/>
<path d="M702.1 115V133.1H688.2V205.3H664.7V133.1H650.8V115H702.1Z" fill="white"/>
<path fill-rule="evenodd" clip-rule="evenodd" d="M735.8 115H752.4C763.467 115 770.967 115.433 774.9 116.3C778.833 117.167 782.033 119.333 784.5 122.8C786.966 126.333 788.2 131.933 788.2 139.6C788.2 146.667 787.333 151.4 785.6 153.8C783.866 156.2 780.433 157.633 775.3 158.1C779.9 159.3 783 160.867 784.6 162.8C786.2 164.733 787.2 166.5 787.6 168.1C788 169.7 788.2 174.167 788.2 181.5V205.3H766.4V175.3C766.4 170.433 766.033 167.433 765.3 166.3C764.5 165.167 762.5 164.6 759.3 164.6V205.3H735.8V115ZM759.3 130.4V150.5C761.9 150.5 763.733 150.133 764.8 149.4C765.866 148.667 766.4 146.3 766.4 142.3V137.4C766.4 134.533 765.9 132.667 764.9 131.8C763.833 130.867 761.966 130.4 759.3 130.4Z" fill="#333333"/>
<path fill-rule="evenodd" clip-rule="evenodd" d="M850.9 167.9C850.9 176.967 850.7 183.367 850.3 187.1C849.9 190.9 848.566 194.367 846.3 197.5C844.033 200.567 841 202.967 837.2 204.7C833.333 206.367 828.866 207.2 823.8 207.2C818.933 207.2 814.6 206.4 810.8 204.8C806.933 203.2 803.833 200.833 801.5 197.7C799.166 194.5 797.766 191.067 797.3 187.4C796.833 183.667 796.6 177.167 796.6 167.9V152.4C796.6 143.333 796.833 136.9 797.3 133.1C797.7 129.367 799.033 125.933 801.3 122.8C803.566 119.667 806.6 117.267 810.4 115.6C814.2 113.933 818.666 113.1 823.8 113.1C828.6 113.1 832.933 113.9 836.8 115.5C840.666 117.033 843.766 119.4 846.1 122.6C848.433 125.733 849.833 129.167 850.3 132.9C850.7 136.633 850.9 143.133 850.9 152.4V167.9ZM827.5 138.2C827.5 134 827.266 131.333 826.8 130.2C826.333 129 825.366 128.4 823.9 128.4C822.7 128.4 821.766 128.867 821.1 129.8C820.433 130.8 820.1 133.6 820.1 138.2V180.4C820.1 185.667 820.3 188.9 820.7 190.1C821.166 191.3 822.166 191.9 823.7 191.9C825.3 191.9 826.333 191.2 826.8 189.8C827.266 188.4 827.5 185.033 827.5 179.7V138.2Z" fill="#333333"/>
<path fill-rule="evenodd" clip-rule="evenodd" d="M859.7 115H883.1C890.5 115 896.1 115.567 899.9 116.7C903.7 117.833 906.8 120.167 909.2 123.7C911.534 127.233 912.7 132.9 912.7 140.7C912.7 145.967 911.867 149.633 910.2 151.7C908.534 153.833 905.267 155.433 900.4 156.5C905.8 157.767 909.467 159.8 911.4 162.6C913.334 165.467 914.3 169.833 914.3 175.7V184.1C914.3 190.167 913.634 194.667 912.3 197.6C910.9 200.533 908.667 202.567 905.6 203.7C902.533 204.767 896.267 205.3 886.8 205.3H859.7V115ZM883.2 130.4V150.5C884.2 150.433 884.967 150.4 885.5 150.4C887.834 150.4 889.3 149.833 889.9 148.7C890.567 147.567 890.9 144.333 890.9 139C890.9 136.2 890.633 134.233 890.1 133.1C889.567 131.967 888.867 131.233 888 130.9C887.2 130.633 885.6 130.467 883.2 130.4V130.4ZM883.2 164.5V189.8C886.467 189.667 888.567 189.133 889.5 188.2C890.434 187.267 890.9 185 890.9 181.4V173C890.9 169.133 890.467 166.767 889.6 165.9C888.8 165.1 886.667 164.633 883.2 164.5Z" fill="#333333"/>
<path fill-rule="evenodd" clip-rule="evenodd" d="M976.4 167.9C976.4 176.967 976.2 183.367 975.8 187.1C975.333 190.9 974 194.367 971.8 197.5C969.533 200.567 966.466 202.967 962.6 204.7C958.8 206.367 954.366 207.2 949.3 207.2C944.433 207.2 940.066 206.4 936.2 204.8C932.4 203.2 929.333 200.833 927 197.7C924.6 194.5 923.2 191.067 922.8 187.4C922.333 183.667 922.1 177.167 922.1 167.9V152.4C922.1 143.333 922.3 136.9 922.7 133.1C923.166 129.367 924.533 125.933 926.8 122.8C929 119.667 932.033 117.267 935.9 115.6C939.7 113.933 944.166 113.1 949.3 113.1C954.1 113.1 958.433 113.9 962.3 115.5C966.1 117.033 969.2 119.4 971.6 122.6C973.933 125.733 975.3 129.167 975.7 132.9C976.166 136.633 976.4 143.133 976.4 152.4V167.9ZM952.9 138.2C952.9 134 952.666 131.333 952.2 130.2C951.733 129 950.8 128.4 949.4 128.4C948.133 128.4 947.166 128.867 946.5 129.8C945.9 130.8 945.6 133.6 945.6 138.2V180.4C945.6 185.667 945.8 188.9 946.2 190.1C946.666 191.3 947.666 191.9 949.2 191.9C950.8 191.9 951.833 191.2 952.3 189.8C952.7 188.4 952.9 185.033 952.9 179.7V138.2Z" fill="#333333"/>
<path d="M1032.4 115V133.1H1018.5V205.3H995V133.1H981.2V115H1032.4Z" fill="#333333"/>
<path fill-rule="evenodd" clip-rule="evenodd" d="M532.8 273.4H494.4C494.6 277.267 496.367 280.633 499.7 283.5C502.967 286.3 506.667 287.7 510.8 287.7C514.134 287.7 517.167 286.867 519.9 285.2C522.767 283.533 524.767 281.267 525.9 278.4H531.6C530.067 282.533 527.4 285.867 523.6 288.4C519.734 290.933 515.5 292.2 510.9 292.2C504.834 292.2 499.634 290.167 495.3 286.1C491.034 282.1 488.9 277.267 488.9 271.6C488.9 266 491.034 261.167 495.3 257.1C499.634 252.967 504.8 250.9 510.8 250.9C516.934 250.9 522.167 253 526.5 257.2C530.767 261.333 532.9 266.267 532.9 272L532.8 273.4ZM527.3 268.9C526.634 264.967 524.767 261.733 521.7 259.2C518.634 256.667 515.034 255.4 510.9 255.4C506.7 255.4 503.067 256.667 500 259.2C496.934 261.733 495.067 264.967 494.4 268.9H527.3Z" fill="#333333"/>
<path fill-rule="evenodd" clip-rule="evenodd" d="M578.3 291.3V284.4H578.1C574.366 289.6 568.9 292.2 561.7 292.2C555.366 292.2 550 290.233 545.6 286.3C541.266 282.367 539.1 277.433 539.1 271.5C539.1 265.633 541.3 260.733 545.7 256.8C550.1 252.867 555.433 250.9 561.7 250.9C568.833 250.9 574.3 253.5 578.1 258.7H578.3V238H583.7V291.3H578.3ZM573.8 260.3C570.466 257.1 566.433 255.5 561.7 255.5C556.7 255.5 552.6 257.033 549.4 260.1C546.133 263.167 544.5 267.033 544.5 271.7C544.5 276.3 546.133 280.133 549.4 283.2C552.666 286.2 556.766 287.7 561.7 287.7C566.433 287.7 570.466 286.133 573.8 283C577 279.867 578.6 276.067 578.6 271.6C578.6 267.2 577 263.433 573.8 260.3V260.3Z" fill="#333333"/>
<path d="M625.4 291.3V285.2H625.3C624.1 287.467 622.233 289.233 619.7 290.5C617.366 291.633 614.733 292.2 611.8 292.2C605.466 292.2 600.633 290.233 597.3 286.3C595.9 284.7 594.9 282.7 594.3 280.3C593.833 278.367 593.6 276.133 593.6 273.6V251.9H599V273.6C599 278 599.933 281.367 601.8 283.7C603.866 286.367 607.2 287.7 611.8 287.7C615.333 287.7 618.3 286.633 620.7 284.5C622.433 282.967 623.633 281.167 624.3 279.1C624.833 277.433 625.1 275.3 625.1 272.7V251.9H630.5V291.3H625.4Z" fill="#333333"/>
<path d="M682.4 279.7C677.867 288.033 670.9 292.2 661.5 292.2C655.233 292.2 649.9 290.233 645.5 286.3C641.033 282.367 638.8 277.467 638.8 271.6C638.8 265.867 641.033 260.967 645.5 256.9C649.966 252.9 655.3 250.9 661.5 250.9C666.1 250.9 670.3 252.033 674.1 254.3C677.9 256.633 680.667 259.8 682.4 263.8H676.5C673.366 258.267 668.4 255.5 661.6 255.5C656.8 255.5 652.7 257.033 649.3 260.1C645.9 263.167 644.2 266.967 644.2 271.5C644.2 276.033 645.866 279.867 649.2 283C652.6 286.133 656.733 287.7 661.6 287.7C668.533 287.7 673.5 285.033 676.5 279.7H682.4Z" fill="#333333"/>
<path fill-rule="evenodd" clip-rule="evenodd" d="M728 291.3V284.4H727.8C724.133 289.6 718.667 292.2 711.4 292.2C705.067 292.2 699.733 290.233 695.4 286.3C691 282.367 688.8 277.433 688.8 271.5C688.8 265.633 691 260.733 695.4 256.8C699.8 252.867 705.133 250.9 711.4 250.9C718.733 250.9 724.2 253.533 727.8 258.8H728V251.9H733.4V291.3H728ZM723.5 260.3C720.166 257.1 716.133 255.5 711.4 255.5C706.467 255.5 702.366 257.033 699.1 260.1C695.833 263.167 694.2 267.033 694.2 271.7C694.2 276.3 695.833 280.133 699.1 283.2C702.366 286.2 706.467 287.7 711.4 287.7C716.133 287.7 720.166 286.133 723.5 283C726.7 279.867 728.3 276.067 728.3 271.6C728.3 267.2 726.7 263.433 723.5 260.3V260.3Z" fill="#333333"/>
<path d="M753.5 256.5V291.3H748.1V256.5H739.2V251.9H748.1V238H753.5V251.9H763.5V256.5H753.5Z" fill="#333333"/>
<path d="M769.3 238H774.6V247.1H769.3V238ZM769.3 251.9H774.6V291.3H769.3V251.9Z" fill="#333333"/>
<path fill-rule="evenodd" clip-rule="evenodd" d="M820.4 286.1C816.067 290.167 810.867 292.2 804.8 292.2C798.867 292.2 793.734 290.2 789.4 286.2C785.067 282.133 782.9 277.367 782.9 271.9C782.9 266.167 785.034 261.233 789.3 257.1C793.567 252.967 798.734 250.9 804.8 250.9C810.8 250.9 816 252.933 820.4 257C824.734 261.067 826.9 265.933 826.9 271.6C826.9 277.2 824.734 282.033 820.4 286.1ZM816.7 260.2C813.434 257.067 809.5 255.5 804.9 255.5C800.167 255.5 796.2 257.133 793 260.4C789.867 263.533 788.3 267.333 788.3 271.8C788.3 276.133 789.9 279.867 793.1 283C796.367 286.133 800.3 287.7 804.9 287.7C809.7 287.7 813.7 286.067 816.9 282.8C819.967 279.667 821.5 275.867 821.5 271.4C821.567 267.067 819.967 263.333 816.7 260.2V260.2Z" fill="#333333"/>
<path d="M866.8 291.3V269.6C866.8 267.533 866.5 265.6 865.9 263.8C865.233 261.733 864.166 260.067 862.7 258.8C860.166 256.6 857.133 255.5 853.6 255.5C850.066 255.5 847 256.6 844.4 258.8C843.066 260.067 842.033 261.7 841.3 263.7C840.766 265.433 840.5 267.3 840.5 269.3V291.3H835.1V251.9H840.5V257H840.6C843.4 252.933 847.733 250.9 853.6 250.9C859.466 250.9 864.066 252.667 867.4 256.2C870.6 259.6 872.2 264.067 872.2 269.6V291.3H866.8Z" fill="#333333"/>
<path d="M909 289.4C909 292.267 908.733 294.533 908.2 296.2C907.533 298.467 906.267 300.367 904.4 301.9C901.867 303.967 898.733 305.033 895 305.1V300.1C898.467 300.033 900.867 298.833 902.2 296.5C902.733 295.5 903.1 294.267 903.3 292.8C903.5 291.667 903.6 290.233 903.6 288.5V251.9H909V289.4ZM903.6 238.1H909V247.2H903.6V238.1Z" fill="#333333"/>
<path d="M921.9 282.2H927.6V291.3H921.9V282.2Z" fill="#333333"/>
<path d="M950.2 292.2C946.4 292.2 943.3 291.067 940.9 288.8C938.434 286.467 937.2 283.567 937.2 280.1V279.6H942.6C942.667 285 945.2 287.7 950.2 287.7C955.4 287.7 958 285.333 958 280.6C958 278.333 957 276.533 955 275.2C954.2 274.667 953.134 274.133 951.8 273.6L948.2 272.3C946.734 271.767 945.533 271.267 944.6 270.8C943.333 270.2 942.3 269.567 941.5 268.9C939.5 267.167 938.5 264.8 938.5 261.8C938.434 258.6 939.567 256 941.9 254C944.167 251.933 947.034 250.9 950.5 250.9C953.7 250.9 956.4 251.933 958.6 254C960.8 256.067 961.9 258.6 961.9 261.6H956.5C956.234 257.533 954.134 255.5 950.2 255.5C945.934 255.5 943.8 257.467 943.8 261.4C943.8 263.333 944.834 264.9 946.9 266.1C947.634 266.5 948.667 266.933 950 267.4L950.9 267.7C951.1 267.767 951.4 267.9 951.8 268.1L953.6 268.7C955.067 269.233 956.267 269.733 957.2 270.2C958.467 270.867 959.5 271.6 960.3 272.4C962.367 274.333 963.4 276.933 963.4 280.2C963.4 288.2 959 292.2 950.2 292.2V292.2Z" fill="#333333"/>
<path d="M973.1 282.2H978.8V291.3H973.1V282.2Z" fill="#333333"/>
<path d="M1033.3 279.7C1028.77 288.033 1021.77 292.2 1012.3 292.2C1006.03 292.2 1000.73 290.233 996.4 286.3C991.934 282.367 989.7 277.467 989.7 271.6C989.7 265.867 991.934 260.967 996.4 256.9C1000.8 252.9 1006.1 250.9 1012.3 250.9C1016.97 250.9 1021.2 252.033 1025 254.3C1028.8 256.633 1031.57 259.8 1033.3 263.8H1027.4C1024.27 258.267 1019.3 255.5 1012.5 255.5C1007.63 255.5 1003.53 257.033 1000.2 260.1C996.8 263.167 995.1 266.967 995.1 271.5C995.1 276.033 996.767 279.867 1000.1 283C1003.43 286.133 1007.57 287.7 1012.5 287.7C1019.43 287.7 1024.4 285.033 1027.4 279.7H1033.3Z" fill="#333333"/>
</g>
<defs>
<clipPath id="clip0_17_849">
<rect x="44" y="30" width="1015" height="342" rx="16" fill="white"/>
</clipPath>
</defs>
</svg>
