<?xml version="1.0" encoding="UTF-8"?>
<!DOCTYPE svg PUBLIC "-//W3C//DTD SVG 1.1//EN" "http://www.w3.org/Graphics/SVG/1.1/DTD/svg11.dtd">
<svg xmlns="http://www.w3.org/2000/svg" version="1.1" width="8334px" height="8334px" style="shape-rendering:geometricPrecision; text-rendering:geometricPrecision; image-rendering:optimizeQuality; fill-rule:evenodd; clip-rule:evenodd" xmlns:xlink="http://www.w3.org/1999/xlink">
<g><path style="opacity:0.998" fill="#a0d467" d="M 7539.5,1722.5 C 6268.17,1722.5 4996.83,1722.5 3725.5,1722.5C 3410.17,1722.33 3094.83,1722.5 2779.5,1723C 2689.58,1723.68 2624.41,1763.85 2584,1843.5C 2560.13,1902.52 2562.46,1960.52 2591,2017.5C 2628.55,2082.64 2685.05,2118.14 2760.5,2124C 2986.83,2124.33 3213.17,2124.67 3439.5,2125C 3455.89,2127.72 3463.89,2137.39 3463.5,2154C 3463.6,2168.25 3456.6,2176.92 3442.5,2180C 3377.8,2181.77 3323.97,2206.6 3281,2254.5C 3238.72,2308.43 3226.39,2368.77 3244,2435.5C 3265.56,2515.06 3316.72,2562.89 3397.5,2579C 3413.58,2580.82 3429.58,2583.16 3445.5,2586C 3459.58,2592.33 3465.75,2603.16 3464,2618.5C 3460.5,2627.5 3454.67,2634.5 3446.5,2639.5C 3016.17,2639.33 2585.83,2639.5 2155.5,2640C 2075.99,2641.33 2015.16,2675.5 1973,2742.5C 1949.53,2788.1 1942.87,2836.1 1953,2886.5C 1966.28,2940.25 1996.11,2982.08 2042.5,3012C 2070.79,3029.1 2101.45,3038.76 2134.5,3041C 2424.5,3041.33 2714.5,3041.67 3004.5,3042C 3015.4,3042.12 3025.4,3045.12 3034.5,3051C 3043.1,3059.03 3045.93,3068.86 3043,3080.5C 3041.49,3085.36 3038.66,3089.19 3034.5,3092C 3019.82,3098.23 3004.48,3101.89 2988.5,3103C 2913.71,3117.12 2862.55,3159.62 2835,3230.5C 2811.55,3295.24 2818.88,3356.24 2857,3413.5C 2895.55,3468.54 2948.72,3497.71 3016.5,3501C 3027.32,3501.71 3036.49,3505.88 3044,3513.5C 3050.21,3525.37 3049.88,3537.04 3043,3548.5C 3038.57,3552.46 3033.41,3554.96 3027.5,3556C 2872.83,3556.33 2718.17,3556.67 2563.5,3557C 2455.75,3562.43 2388.59,3617.27 2362,3721.5C 2350.68,3803.9 2377.51,3870.74 2442.5,3922C 2473.82,3944.48 2508.82,3956.48 2547.5,3958C 2858.17,3958.5 3168.83,3958.67 3479.5,3958.5C 3551.17,3958.5 3622.83,3958.5 3694.5,3958.5C 3713.42,3959.03 3732.42,3959.86 3751.5,3961C 3759.38,3965.88 3765.55,3972.38 3770,3980.5C 3772.57,3995.54 3767.07,4006.37 3753.5,4013C 3735.57,4016.31 3717.57,4019.31 3699.5,4022C 3625.27,4040.9 3576.1,4086.73 3552,4159.5C 3535.66,4226.48 3547.66,4287.81 3588,4343.5C 3627.43,4391.01 3678.26,4415.85 3740.5,4418C 3752.54,4419.27 3762.04,4424.77 3769,4434.5C 3774.69,4456.61 3766.19,4469.44 3743.5,4473C 3584.49,4473.76 3425.49,4475.43 3266.5,4478C 3188.44,4485.93 3132.27,4525.1 3098,4595.5C 3072.58,4660.61 3077.58,4723.28 3113,4783.5C 3150.84,4841.11 3204.34,4872.11 3273.5,4876.5C 3012.83,4876.67 2752.17,4876.5 2491.5,4876C 2411.27,4868.01 2349.77,4830.18 2307,4762.5C 2266.68,4688.73 2266.34,4614.73 2306,4540.5C 2351.99,4462.74 2420.49,4424.24 2511.5,4425C 2543.32,4423.7 2575.15,4422.87 2607,4422.5C 2655.67,4423.17 2704.33,4423.84 2753,4424.5C 2800.5,4423.86 2848,4423.36 2895.5,4423C 2774.36,4375.27 2720.86,4286.43 2735,4156.5C 2750.06,4086.83 2788.56,4034.67 2850.5,4000C 2867.04,3991.4 2884.04,3983.9 2901.5,3977.5C 2900.09,3976.19 2898.42,3975.36 2896.5,3975C 2520.15,3974.99 2143.82,3974.33 1767.5,3973C 1670.29,3959.78 1606.46,3906.62 1576,3813.5C 1553.7,3731.63 1570.37,3658.96 1626,3595.5C 1667.91,3552.13 1719.08,3527.96 1779.5,3523C 1915.52,3522.98 2051.52,3522.32 2187.5,3521C 2144.75,3505.22 2107.59,3481.06 2076,3448.5C 2039.57,3405.24 2021.74,3355.07 2022.5,3298C 2022.44,3215.75 2056.78,3152.75 2125.5,3109C 2147.11,3096.2 2169.77,3085.53 2193.5,3077C 2190.64,3075.6 2187.64,3074.6 2184.5,3074C 1913.83,3073.67 1643.17,3073.33 1372.5,3073C 1302.25,3067.68 1246.75,3036.51 1206,2979.5C 1159.55,2910.38 1151.55,2837.04 1182,2759.5C 1214.45,2691.72 1266.95,2647.89 1339.5,2628C 1354.3,2624.36 1369.3,2622.03 1384.5,2621C 1782.83,2621.59 2181.17,2621.59 2579.5,2621C 2585.01,2620.95 2590.34,2620.28 2595.5,2619C 2472.2,2573.6 2418.36,2485.43 2434,2354.5C 2441.28,2308.77 2461.11,2269.61 2493.5,2237C 2523.2,2209.68 2556.87,2188.35 2594.5,2173C 2387.83,2172.94 2181.16,2172.27 1974.5,2171C 1901.9,2162.14 1845.74,2127.31 1806,2066.5C 1772.57,2007.03 1764.9,1944.36 1783,1878.5C 1810.26,1797.9 1865.1,1747.07 1947.5,1726C 1958.71,1723.52 1970.05,1721.85 1981.5,1721C 3830.5,1720.33 5679.5,1720.33 7528.5,1721C 7532.36,1721.18 7536.02,1721.68 7539.5,1722.5 Z"/></g>
<g><path style="opacity:1" fill="#fecd54" d="M 3725.5,1722.5 C 3720.46,1724.6 3715.12,1726.1 3709.5,1727C 3693.09,1728.46 3676.76,1730.46 3660.5,1733C 3595.62,1756.22 3552.79,1800.72 3532,1866.5C 3513.42,1937.82 3527.75,2001.49 3575,2057.5C 3610.53,2095.68 3654.37,2117.52 3706.5,2123C 3934.49,2124.32 4162.49,2124.99 4390.5,2125C 4416.66,2129.14 4424.83,2143.64 4415,2168.5C 4409.88,2175.32 4403.05,2179.48 4394.5,2181C 4319.55,2183.54 4261.72,2216.04 4221,2278.5C 4192.84,2324.05 4184.84,2373.05 4197,2425.5C 4218.73,2508.22 4271.23,2559.72 4354.5,2580C 4366.47,2581.33 4378.47,2582.33 4390.5,2583C 4417.1,2587.71 4425.27,2602.54 4415,2627.5C 4409.21,2633.81 4402.04,2637.65 4393.5,2639C 4077.83,2639.5 3762.17,2639.67 3446.5,2639.5C 3454.67,2634.5 3460.5,2627.5 3464,2618.5C 3465.75,2603.16 3459.58,2592.33 3445.5,2586C 3429.58,2583.16 3413.58,2580.82 3397.5,2579C 3316.72,2562.89 3265.56,2515.06 3244,2435.5C 3226.39,2368.77 3238.72,2308.43 3281,2254.5C 3323.97,2206.6 3377.8,2181.77 3442.5,2180C 3456.6,2176.92 3463.6,2168.25 3463.5,2154C 3463.89,2137.39 3455.89,2127.72 3439.5,2125C 3213.17,2124.67 2986.83,2124.33 2760.5,2124C 2685.05,2118.14 2628.55,2082.64 2591,2017.5C 2562.46,1960.52 2560.13,1902.52 2584,1843.5C 2624.41,1763.85 2689.58,1723.68 2779.5,1723C 3094.83,1722.5 3410.17,1722.33 3725.5,1722.5 Z"/></g>
<g><path style="opacity:1" fill="#ed5564" d="M 3725.5,1722.5 C 4996.83,1722.5 6268.17,1722.5 7539.5,1722.5C 7641.76,1721.07 7727.26,1757.74 7796,1832.5C 7842.67,1887.79 7868.67,1951.79 7874,2024.5C 7875.66,2870.49 7875.99,3716.49 7875,4562.5C 7870.25,4665.16 7828.09,4748.33 7748.5,4812C 7696.79,4849.91 7638.79,4871.24 7574.5,4876C 6450.49,4876.83 5326.49,4876.67 4202.5,4875.5C 4186.16,4869.66 4169.83,4863.49 4153.5,4857C 4082.82,4823.61 4044.32,4767.78 4038,4689.5C 4033.9,4648.24 4042.57,4609.9 4064,4574.5C 4090.98,4530.18 4129.15,4500.02 4178.5,4484C 4184.45,4482.45 4190.45,4481.12 4196.5,4480C 4278.48,4478.28 4360.48,4476.61 4442.5,4475C 4527.83,4474.67 4613.17,4474.33 4698.5,4474C 4722.12,4469.94 4730.28,4456.44 4723,4433.5C 4716.62,4425.71 4708.45,4420.55 4698.5,4418C 4626.55,4415.79 4570.39,4385.29 4530,4326.5C 4495.78,4270.32 4489.11,4210.98 4510,4148.5C 4537.09,4081.75 4585.59,4039.58 4655.5,4022C 4671.01,4018.73 4686.68,4016.4 4702.5,4015C 4724.46,4008.57 4730.96,3994.73 4722,3973.5C 4716.34,3965.25 4708.51,3960.42 4698.5,3959C 4363.83,3958.5 4029.17,3958.33 3694.5,3958.5C 3622.83,3958.5 3551.17,3958.5 3479.5,3958.5C 3456.14,3951.33 3433.47,3942.16 3411.5,3931C 3353.19,3893.92 3320.69,3840.76 3314,3771.5C 3312.31,3692.03 3344.48,3630.53 3410.5,3587C 3443.61,3568.14 3479.28,3558.14 3517.5,3557C 3670.83,3556.67 3824.17,3556.33 3977.5,3556C 3998.43,3552.67 4006.93,3540.51 4003,3519.5C 4000.08,3510.95 3994.25,3505.45 3985.5,3503C 3968.88,3500.37 3952.22,3498.03 3935.5,3496C 3897.67,3488.09 3865,3470.75 3837.5,3444C 3777.94,3383.24 3761.77,3312.4 3789,3231.5C 3820.36,3151.2 3879.19,3107.36 3965.5,3100C 3977.07,3097.96 3987.24,3093.13 3996,3085.5C 4006.13,3067.85 4001.96,3054.68 3983.5,3046C 3977.69,3043.9 3971.69,3042.57 3965.5,3042C 3673.83,3041.67 3382.17,3041.33 3090.5,3041C 3022.47,3035.26 2969.97,3004.1 2933,2947.5C 2898.56,2887.2 2894.23,2824.87 2920,2760.5C 2951.51,2696.48 3002.34,2657.65 3072.5,2644C 3182.83,2644.57 3293.16,2644.57 3403.5,2644C 3414.5,2643.67 3425.5,2643.33 3436.5,2643C 3440.16,2642.43 3443.5,2641.26 3446.5,2639.5C 3762.17,2639.67 4077.83,2639.5 4393.5,2639C 4402.04,2637.65 4409.21,2633.81 4415,2627.5C 4425.27,2602.54 4417.1,2587.71 4390.5,2583C 4378.47,2582.33 4366.47,2581.33 4354.5,2580C 4271.23,2559.72 4218.73,2508.22 4197,2425.5C 4184.84,2373.05 4192.84,2324.05 4221,2278.5C 4261.72,2216.04 4319.55,2183.54 4394.5,2181C 4403.05,2179.48 4409.88,2175.32 4415,2168.5C 4424.83,2143.64 4416.66,2129.14 4390.5,2125C 4162.49,2124.99 3934.49,2124.32 3706.5,2123C 3654.37,2117.52 3610.53,2095.68 3575,2057.5C 3527.75,2001.49 3513.42,1937.82 3532,1866.5C 3552.79,1800.72 3595.62,1756.22 3660.5,1733C 3676.76,1730.46 3693.09,1728.46 3709.5,1727C 3715.12,1726.1 3720.46,1724.6 3725.5,1722.5 Z"/></g>
<g><path style="opacity:1" fill="#fdfdfd" d="M 5317.5,2167.5 C 5395.79,2164.89 5455.62,2196.56 5497,2262.5C 5515.07,2293.46 5522.41,2326.79 5519,2362.5C 5501.37,2486.88 5429.87,2546.05 5304.5,2540C 5233.09,2526.26 5183.59,2485.76 5156,2418.5C 5137.6,2365.84 5141.27,2314.84 5167,2265.5C 5183.03,2239.8 5203.53,2218.3 5228.5,2201C 5252.56,2190.42 5276.89,2180.42 5301.5,2171C 5306.9,2169.5 5312.23,2168.34 5317.5,2167.5 Z"/></g>
<g><path style="opacity:1" fill="#fdfdfd" d="M 7084.5,2168.5 C 7091.88,2168.31 7099.21,2168.81 7106.5,2170C 7130.79,2176.88 7155.12,2183.54 7179.5,2190C 7190.17,2199.67 7200.83,2209.33 7211.5,2219C 7218.89,2224.72 7226.56,2230.06 7234.5,2235C 7278.48,2285.9 7290.65,2343.73 7271,2408.5C 7263.06,2421.73 7256.72,2435.73 7252,2450.5C 7204.88,2521.13 7139.05,2550.63 7054.5,2539C 6993.18,2523.58 6948.68,2487.42 6921,2430.5C 6900.01,2384.75 6899.35,2338.75 6919,2292.5C 6932.84,2257.34 6954.34,2227.84 6983.5,2204C 6996.23,2195.8 7009.9,2189.47 7024.5,2185C 7044.6,2179.48 7064.6,2173.98 7084.5,2168.5 Z"/></g>
<g><path style="opacity:1" fill="#fdfdfd" d="M 6199.5,2169.5 C 6258.26,2167.46 6307.42,2188.13 6347,2231.5C 6352.16,2237.82 6356.83,2244.48 6361,2251.5C 6363.56,2254.53 6366.73,2256.7 6370.5,2258C 6392.51,2288.22 6401.68,2322.05 6398,2359.5C 6394.04,2383.24 6388.38,2406.57 6381,2429.5C 6378.38,2436.74 6375.21,2443.74 6371.5,2450.5C 6367.15,2454.02 6363.31,2458.02 6360,2462.5C 6353.99,2472.85 6346.82,2482.35 6338.5,2491C 6334.17,2494 6329.83,2497 6325.5,2500C 6302.9,2510.3 6280.9,2521.63 6259.5,2534C 6198.36,2551.44 6143.36,2540.11 6094.5,2500C 6031.99,2446.47 6011.82,2379.97 6034,2300.5C 6063.48,2224.2 6118.65,2180.53 6199.5,2169.5 Z"/></g>
<g><path style="opacity:0.998" fill="#4fc1e8" d="M 471.5,2621.5 C 577.167,2621.33 682.834,2621.5 788.5,2622C 881.043,2628.66 947.543,2673.49 988,2756.5C 1021.47,2843.98 1009.14,2924.31 951,2997.5C 909.437,3046.69 856.271,3071.86 791.5,3073C 684.831,3073.68 578.165,3073.51 471.5,3072.5C 471.5,2922.17 471.5,2771.83 471.5,2621.5 Z"/></g>
<g><path style="opacity:1" fill="#fecd54" d="M 3446.5,2639.5 C 3443.5,2641.26 3440.16,2642.43 3436.5,2643C 3425.5,2643.33 3414.5,2643.67 3403.5,2644C 3293.16,2644.57 3182.83,2644.57 3072.5,2644C 3002.34,2657.65 2951.51,2696.48 2920,2760.5C 2894.23,2824.87 2898.56,2887.2 2933,2947.5C 2969.97,3004.1 3022.47,3035.26 3090.5,3041C 3382.17,3041.33 3673.83,3041.67 3965.5,3042C 3971.69,3042.57 3977.69,3043.9 3983.5,3046C 4001.96,3054.68 4006.13,3067.85 3996,3085.5C 3987.24,3093.13 3977.07,3097.96 3965.5,3100C 3879.19,3107.36 3820.36,3151.2 3789,3231.5C 3761.77,3312.4 3777.94,3383.24 3837.5,3444C 3865,3470.75 3897.67,3488.09 3935.5,3496C 3952.22,3498.03 3968.88,3500.37 3985.5,3503C 3994.25,3505.45 4000.08,3510.95 4003,3519.5C 4006.93,3540.51 3998.43,3552.67 3977.5,3556C 3824.17,3556.33 3670.83,3556.67 3517.5,3557C 3479.28,3558.14 3443.61,3568.14 3410.5,3587C 3344.48,3630.53 3312.31,3692.03 3314,3771.5C 3320.69,3840.76 3353.19,3893.92 3411.5,3931C 3433.47,3942.16 3456.14,3951.33 3479.5,3958.5C 3168.83,3958.67 2858.17,3958.5 2547.5,3958C 2508.82,3956.48 2473.82,3944.48 2442.5,3922C 2377.51,3870.74 2350.68,3803.9 2362,3721.5C 2388.59,3617.27 2455.75,3562.43 2563.5,3557C 2718.17,3556.67 2872.83,3556.33 3027.5,3556C 3033.41,3554.96 3038.57,3552.46 3043,3548.5C 3049.88,3537.04 3050.21,3525.37 3044,3513.5C 3036.49,3505.88 3027.32,3501.71 3016.5,3501C 2948.72,3497.71 2895.55,3468.54 2857,3413.5C 2818.88,3356.24 2811.55,3295.24 2835,3230.5C 2862.55,3159.62 2913.71,3117.12 2988.5,3103C 3004.48,3101.89 3019.82,3098.23 3034.5,3092C 3038.66,3089.19 3041.49,3085.36 3043,3080.5C 3045.93,3068.86 3043.1,3059.03 3034.5,3051C 3025.4,3045.12 3015.4,3042.12 3004.5,3042C 2714.5,3041.67 2424.5,3041.33 2134.5,3041C 2101.45,3038.76 2070.79,3029.1 2042.5,3012C 1996.11,2982.08 1966.28,2940.25 1953,2886.5C 1942.87,2836.1 1949.53,2788.1 1973,2742.5C 2015.16,2675.5 2075.99,2641.33 2155.5,2640C 2585.83,2639.5 3016.17,2639.33 3446.5,2639.5 Z"/></g>
<g><path style="opacity:1" fill="#fdfdfd" d="M 6194.5,3110.5 C 6274.5,3108.24 6335.34,3140.91 6377,3208.5C 6404.43,3262.39 6406.77,3317.39 6384,3373.5C 6352.02,3440.1 6299.18,3477.6 6225.5,3486C 6152.91,3488.46 6096.08,3459.96 6055,3400.5C 6024.62,3351.23 6017.62,3298.89 6034,3243.5C 6038.14,3234.55 6042.81,3225.88 6048,3217.5C 6060.09,3200.57 6071.59,3183.24 6082.5,3165.5C 6093.96,3159.2 6105.3,3152.7 6116.5,3146C 6124.75,3140.42 6132.42,3134.09 6139.5,3127C 6157.07,3118.53 6175.4,3113.03 6194.5,3110.5 Z"/></g>
<g><path style="opacity:1" fill="#fdfdfd" d="M 7075.5,3110.5 C 7154.83,3107.91 7215,3140.24 7256,3207.5C 7283.63,3260.29 7286.96,3314.63 7266,3370.5C 7234.76,3437.05 7182.59,3475.22 7109.5,3485C 7044.07,3489.02 6989.9,3466.52 6947,3417.5C 6907.87,3366.65 6896.2,3309.98 6912,3247.5C 6927.69,3196.47 6958.86,3157.97 7005.5,3132C 7027.63,3120.47 7050.96,3113.31 7075.5,3110.5 Z"/></g>
<g><path style="opacity:1" fill="#fdfdfd" d="M 5311.5,3111.5 C 5382.73,3107.16 5440.23,3132.83 5484,3188.5C 5523.25,3245.38 5530.25,3306.04 5505,3370.5C 5473.16,3438.19 5419.99,3476.69 5345.5,3486C 5287.5,3489.74 5238.67,3470.57 5199,3428.5C 5180.46,3402.75 5166.12,3374.75 5156,3344.5C 5142.01,3294.73 5148.34,3247.73 5175,3203.5C 5185.78,3188.38 5196.95,3173.55 5208.5,3159C 5224.25,3153.58 5237.58,3144.58 5248.5,3132C 5268.37,3121.21 5289.37,3114.38 5311.5,3111.5 Z"/></g>
<g><path style="opacity:1" fill="#fecd54" d="M 3694.5,3958.5 C 4029.17,3958.33 4363.83,3958.5 4698.5,3959C 4708.51,3960.42 4716.34,3965.25 4722,3973.5C 4730.96,3994.73 4724.46,4008.57 4702.5,4015C 4686.68,4016.4 4671.01,4018.73 4655.5,4022C 4585.59,4039.58 4537.09,4081.75 4510,4148.5C 4489.11,4210.98 4495.78,4270.32 4530,4326.5C 4570.39,4385.29 4626.55,4415.79 4698.5,4418C 4708.45,4420.55 4716.62,4425.71 4723,4433.5C 4730.28,4456.44 4722.12,4469.94 4698.5,4474C 4613.17,4474.33 4527.83,4474.67 4442.5,4475C 4360.48,4476.61 4278.48,4478.28 4196.5,4480C 4190.45,4481.12 4184.45,4482.45 4178.5,4484C 4129.15,4500.02 4090.98,4530.18 4064,4574.5C 4042.57,4609.9 4033.9,4648.24 4038,4689.5C 4044.32,4767.78 4082.82,4823.61 4153.5,4857C 4169.83,4863.49 4186.16,4869.66 4202.5,4875.5C 3892.83,4876.26 3583.17,4876.59 3273.5,4876.5C 3204.34,4872.11 3150.84,4841.11 3113,4783.5C 3077.58,4723.28 3072.58,4660.61 3098,4595.5C 3132.27,4525.1 3188.44,4485.93 3266.5,4478C 3425.49,4475.43 3584.49,4473.76 3743.5,4473C 3766.19,4469.44 3774.69,4456.61 3769,4434.5C 3762.04,4424.77 3752.54,4419.27 3740.5,4418C 3678.26,4415.85 3627.43,4391.01 3588,4343.5C 3547.66,4287.81 3535.66,4226.48 3552,4159.5C 3576.1,4086.73 3625.27,4040.9 3699.5,4022C 3717.57,4019.31 3735.57,4016.31 3753.5,4013C 3767.07,4006.37 3772.57,3995.54 3770,3980.5C 3765.55,3972.38 3759.38,3965.88 3751.5,3961C 3732.42,3959.86 3713.42,3959.03 3694.5,3958.5 Z"/></g>
<g><path style="opacity:0.997" fill="#4fc1e8" d="M 994.5,3972.5 C 1102.84,3972.18 1211.17,3972.68 1319.5,3974C 1396.02,3980.65 1455.19,4015.82 1497,4079.5C 1535.03,4145.75 1541.03,4214.75 1515,4286.5C 1491.42,4340.74 1452.92,4380.58 1399.5,4406C 1378.44,4415.43 1356.44,4421.43 1333.5,4424C 1256.01,4425.14 1178.51,4425.64 1101,4425.5C 1024.49,4425.64 947.987,4425.14 871.5,4424C 789.775,4412.91 730.275,4370.74 693,4297.5C 660.048,4223.57 663.714,4151.57 704,4081.5C 744.251,4019.27 801.418,3983.77 875.5,3975C 915.314,3973.89 954.981,3973.06 994.5,3972.5 Z"/></g>
<g><path style="opacity:1" fill="#fdfdfd" d="M 6193.5,4055.5 C 6231.9,4053.25 6267.9,4061.42 6301.5,4080C 6311.34,4086.08 6321,4092.42 6330.5,4099C 6338.04,4106.87 6345.21,4115.04 6352,4123.5C 6355,4126.17 6358,4128.83 6361,4131.5C 6369.27,4147.04 6377.27,4162.71 6385,4178.5C 6393.76,4206.86 6396.76,4235.86 6394,4265.5C 6385.55,4339.28 6347.05,4390.12 6278.5,4418C 6219.12,4437.61 6162.79,4430.94 6109.5,4398C 6058.45,4364.45 6030.62,4316.95 6026,4255.5C 6023.75,4168.79 6061.58,4106.96 6139.5,4070C 6157.04,4062.95 6175.04,4058.12 6193.5,4055.5 Z"/></g>
<g><path style="opacity:1" fill="#fdfdfd" d="M 5317.5,4055.5 C 5389.97,4052.99 5447.14,4080.99 5489,4139.5C 5524,4196.2 5529,4255.53 5504,4317.5C 5474.06,4381.75 5423.89,4418.91 5353.5,4429C 5286.53,4434.25 5231.03,4411.75 5187,4361.5C 5147.14,4310.04 5135.47,4252.7 5152,4189.5C 5179.92,4111.07 5235.09,4066.41 5317.5,4055.5 Z"/></g>
<g><path style="opacity:1" fill="#fdfdfd" d="M 7065.5,4061.5 C 7103.21,4058.64 7139.88,4063.47 7175.5,4076C 7224.11,4099.38 7256.28,4136.88 7272,4188.5C 7287.08,4243.62 7279.41,4295.29 7249,4343.5C 7241.36,4352.14 7233.36,4360.47 7225,4368.5C 7221.17,4373.67 7217.33,4378.83 7213.5,4384C 7200.3,4391.1 7187.97,4399.43 7176.5,4409C 7136.42,4425.21 7095.09,4429.54 7052.5,4422C 7002,4410.86 6963.83,4383.02 6938,4338.5C 6935.24,4335.07 6931.91,4332.41 6928,4330.5C 6896.06,4270.07 6896.73,4210.07 6930,4150.5C 6947.5,4133 6965,4115.5 6982.5,4098C 7006.13,4076.62 7033.8,4064.46 7065.5,4061.5 Z"/></g>
<g><path style="opacity:0.978" fill="#ec5563" d="M 5957.5,5433.5 C 6011.8,5429.49 6064.13,5437.66 6114.5,5458C 6181.36,5487.19 6227.19,5536.02 6252,5604.5C 6257.91,5623.87 6257.91,5643.2 6252,5662.5C 6239.71,5690 6218.37,5703.66 6188,5703.5C 6159.09,5703.38 6137.09,5691.05 6122,5666.5C 6113.45,5645.71 6102.12,5626.71 6088,5609.5C 6049.66,5572.2 6004.16,5559.37 5951.5,5571C 5920.71,5579.14 5895.88,5595.97 5877,5621.5C 5854.18,5655.61 5841.52,5693.28 5839,5734.5C 5834.45,5781.04 5839.79,5826.38 5855,5870.5C 5884.11,5941.54 5936.94,5972.38 6013.5,5963C 6056.64,5957.54 6088.81,5936.04 6110,5898.5C 6116.26,5881.45 6125.43,5866.29 6137.5,5853C 6159.12,5836.39 6183.12,5832.06 6209.5,5840C 6239.46,5851.38 6255.13,5873.22 6256.5,5905.5C 6255.24,5929.22 6248.4,5951.22 6236,5971.5C 6207.52,6020.18 6167.02,6055.01 6114.5,6076C 6055.51,6097.85 5994.84,6104.18 5932.5,6095C 5824.84,6077.66 5750.67,6018.5 5710,5917.5C 5688.72,5856.58 5680.72,5793.91 5686,5729.5C 5689.2,5662.57 5709.53,5601.57 5747,5546.5C 5799.91,5477.18 5870.07,5439.51 5957.5,5433.5 Z M 5969.5,5475.5 C 6025.24,5472.27 6077.24,5484.44 6125.5,5512C 6168.52,5538.69 6197.69,5576.19 6213,5624.5C 6216.16,5655.67 6202.66,5666.84 6172.5,5658C 6166.67,5654.83 6162.17,5650.33 6159,5644.5C 6121.63,5558.05 6055.8,5518.55 5961.5,5526C 5907.39,5533.45 5865.56,5559.95 5836,5605.5C 5813.61,5642.33 5800.61,5682.33 5797,5725.5C 5792.12,5773.95 5796.12,5821.61 5809,5868.5C 5821.84,5910.96 5845.34,5946.13 5879.5,5974C 5919.64,6001.45 5963.97,6012.12 6012.5,6006C 6084.06,5997.81 6133.23,5960.31 6160,5893.5C 6165.06,5883.55 6173.23,5878.55 6184.5,5878.5C 6206.31,5880.14 6215.81,5891.81 6213,5913.5C 6206.83,5936.83 6196.17,5957.83 6181,5976.5C 6148.09,6014.34 6106.93,6038.51 6057.5,6049C 5997.77,6061.6 5939.1,6057.93 5881.5,6038C 5817.6,6010.77 5773.43,5964.6 5749,5899.5C 5731.51,5848.27 5724.51,5795.6 5728,5741.5C 5729.61,5689.39 5742.61,5640.39 5767,5594.5C 5813.06,5519.03 5880.56,5479.36 5969.5,5475.5 Z"/></g>
<g><path style="opacity:0.991" fill="#ec5563" d="M 6367.5,5436.5 C 6391.35,5433.1 6413.02,5438.27 6432.5,5452C 6444.87,5463.24 6452.7,5477.07 6456,5493.5C 6457.49,5647.47 6457.99,5801.47 6457.5,5955.5C 6533.86,5955.02 6610.2,5955.52 6686.5,5957C 6719.67,5965.85 6737,5987.51 6738.5,6022C 6737.66,6052.57 6723.16,6073.4 6695,6084.5C 6690.3,6086.22 6685.47,6087.38 6680.5,6088C 6576.83,6088.67 6473.17,6088.67 6369.5,6088C 6333.86,6081.58 6313.36,6060.41 6308,6024.5C 6307.33,5849.83 6307.33,5675.17 6308,5500.5C 6312.9,5465.11 6332.73,5443.77 6367.5,5436.5 Z M 6375.5,5478.5 C 6385.46,5477.46 6394.8,5479.29 6403.5,5484C 6411.17,5490.31 6415,5498.48 6415,5508.5C 6415.5,5671.5 6415.67,5834.5 6415.5,5997.5C 6501.5,5997.33 6587.5,5997.5 6673.5,5998C 6690.62,6001.05 6697.79,6011.22 6695,6028.5C 6691.45,6039.21 6683.95,6045.05 6672.5,6046C 6574.17,6046.67 6475.83,6046.67 6377.5,6046C 6359.64,6043.8 6350.47,6033.63 6350,6015.5C 6349.33,5846.83 6349.33,5678.17 6350,5509.5C 6350.41,5492.28 6358.91,5481.94 6375.5,5478.5 Z"/></g>
<g><path style="opacity:0.983" fill="#ec5563" d="M 6803.5,5436.5 C 6827.35,5433.1 6849.02,5438.27 6868.5,5452C 6880.87,5463.24 6888.7,5477.07 6892,5493.5C 6893.32,5614.14 6893.99,5734.81 6894,5855.5C 6895.74,5898.86 6915.58,5930.69 6953.5,5951C 6992.83,5966.29 7032.16,5966.29 7071.5,5951C 7108.14,5931.65 7127.97,5901.15 7131,5859.5C 7131.33,5740.83 7131.67,5622.17 7132,5503.5C 7137.5,5459.33 7162.5,5437 7207,5436.5C 7250.05,5437.22 7274.72,5458.88 7281,5501.5C 7281.67,5625.83 7281.67,5750.17 7281,5874.5C 7275.25,5955.22 7238.41,6017.05 7170.5,6060C 7129.59,6083.19 7085.59,6095.86 7038.5,6098C 6983.41,6102.49 6930.41,6094.16 6879.5,6073C 6797.09,6033.39 6751.92,5967.89 6744,5876.5C 6743.33,5751.17 6743.33,5625.83 6744,5500.5C 6748.9,5465.11 6768.73,5443.77 6803.5,5436.5 Z M 6811.5,5478.5 C 6821.46,5477.46 6830.8,5479.29 6839.5,5484C 6847.17,5490.31 6851,5498.48 6851,5508.5C 6851.33,5627.5 6851.67,5746.5 6852,5865.5C 6860.81,5940.97 6902.31,5986.47 6976.5,6002C 7010.39,6007.16 7043.72,6004.83 7076.5,5995C 7125.3,5976.54 7156.13,5942.04 7169,5891.5C 7171.88,5878.99 7173.55,5866.32 7174,5853.5C 7174.33,5736.5 7174.67,5619.5 7175,5502.5C 7177.62,5488.88 7185.79,5481.04 7199.5,5479C 7224.49,5475.67 7237.65,5486.5 7239,5511.5C 7239.67,5627.17 7239.67,5742.83 7239,5858.5C 7236.41,5946.38 7194.57,6006.88 7113.5,6040C 7053.09,6059.53 6992.09,6061.53 6930.5,6046C 6872.59,6029.74 6830.09,5994.9 6803,5941.5C 6792.35,5916.6 6786.69,5890.6 6786,5863.5C 6785.33,5745.5 6785.33,5627.5 6786,5509.5C 6786.41,5492.28 6794.91,5481.94 6811.5,5478.5 Z"/></g>
<g><path style="opacity:0.985" fill="#ec5563" d="M 7407.5,5443.5 C 7485.83,5443.33 7564.17,5443.5 7642.5,5444C 7693.62,5446.5 7737.79,5465 7775,5499.5C 7810.18,5538.39 7824.51,5584.05 7818,5636.5C 7810.63,5681.43 7788.47,5716.93 7751.5,5743C 7820.81,5778.42 7852.98,5835.25 7848,5913.5C 7841.72,5984.95 7806.22,6035.78 7741.5,6066C 7710.82,6079 7678.82,6086.34 7645.5,6088C 7606,6088.17 7566.5,6088.33 7527,6088.5C 7485.47,6088.65 7443.97,6088.15 7402.5,6087C 7370.3,6078.46 7351.8,6057.62 7347,6024.5C 7346.33,5852.17 7346.33,5679.83 7347,5507.5C 7352.02,5471.66 7372.18,5450.32 7407.5,5443.5 Z M 7415.5,5485.5 C 7492.18,5485.04 7568.85,5485.54 7645.5,5487C 7685.58,5489.96 7719.75,5505.46 7748,5533.5C 7770.81,5561.04 7780.14,5592.7 7776,5628.5C 7768.61,5671.88 7744.78,5702.38 7704.5,5720C 7692.11,5723.9 7679.44,5726.4 7666.5,5727.5C 7666.5,5741.17 7666.5,5754.83 7666.5,5768.5C 7694.01,5769.1 7720.01,5775.6 7744.5,5788C 7785.16,5812.47 7805.83,5848.63 7806.5,5896.5C 7805.02,5962.98 7773.36,6008.15 7711.5,6032C 7691.4,6039.02 7670.73,6043.35 7649.5,6045C 7571.85,6046.62 7494.18,6046.95 7416.5,6046C 7398.64,6043.8 7389.47,6033.63 7389,6015.5C 7388.33,5849.17 7388.33,5682.83 7389,5516.5C 7389.54,5498.81 7398.37,5488.48 7415.5,5485.5 Z M 7496.5,5569.5 C 7531.83,5569.33 7567.17,5569.5 7602.5,5570C 7618.59,5570.77 7633.59,5575.1 7647.5,5583C 7663.45,5594.9 7671.11,5610.9 7670.5,5631C 7670.11,5658.71 7657.11,5677.71 7631.5,5688C 7616.32,5693.48 7600.65,5696.48 7584.5,5697C 7555.17,5697.5 7525.84,5697.67 7496.5,5697.5C 7496.5,5654.83 7496.5,5612.17 7496.5,5569.5 Z M 7496.5,5816.5 C 7534.83,5816.33 7573.17,5816.5 7611.5,5817C 7633.07,5818.06 7653.07,5824.06 7671.5,5835C 7688.7,5848.74 7697.03,5866.74 7696.5,5889C 7696.74,5919.89 7682.74,5941.22 7654.5,5953C 7638.96,5958.44 7622.96,5961.44 7606.5,5962C 7569.83,5962.5 7533.17,5962.67 7496.5,5962.5C 7496.5,5913.83 7496.5,5865.17 7496.5,5816.5 Z"/></g>
<g><path style="opacity:0.99" fill="#4fc1e8" d="M 718.5,5450.5 C 759.498,5448.18 799.498,5453.35 838.5,5466C 881.099,5480.29 914.599,5506.13 939,5543.5C 947.53,5558.22 953.53,5573.89 957,5590.5C 961.56,5626.09 946.06,5645.43 910.5,5648.5C 888.404,5648.21 871.904,5638.54 861,5619.5C 849.841,5587.34 828.674,5564.51 797.5,5551C 758.167,5537 718.833,5537 679.5,5551C 657.328,5559.18 640.828,5573.68 630,5594.5C 616.596,5637.19 630.096,5668.02 670.5,5687C 680.011,5691.06 689.678,5694.73 699.5,5698C 742.46,5707.82 785.46,5717.49 828.5,5727C 860.47,5734.98 890.137,5747.98 917.5,5766C 953.266,5792.69 972.433,5828.52 975,5873.5C 978.388,5957.72 941.888,6017.22 865.5,6052C 838.236,6063.23 809.903,6070.23 780.5,6073C 730.273,6078.37 680.94,6074.04 632.5,6060C 593.692,6047.86 561.192,6026.36 535,5995.5C 521.483,5977.3 512.816,5956.96 509,5934.5C 506.034,5916.41 510.534,5900.58 522.5,5887C 539.161,5874.62 557.494,5871.62 577.5,5878C 589.138,5882.64 597.971,5890.47 604,5901.5C 615.213,5935.38 637.38,5958.88 670.5,5972C 714.174,5987.4 758.174,5988.4 802.5,5975C 822.064,5967.81 838.564,5956.31 852,5940.5C 866.804,5918.63 869.471,5895.29 860,5870.5C 850.063,5852.43 835.563,5839.26 816.5,5831C 806.73,5826.74 796.73,5823.08 786.5,5820C 743.5,5810.33 700.5,5800.67 657.5,5791C 625.866,5782.14 596.866,5768.14 570.5,5749C 532.733,5718.12 514.066,5678.12 514.5,5629C 515.054,5572.55 538.054,5527.89 583.5,5495C 624.298,5467.46 669.298,5452.62 718.5,5450.5 Z"/></g>
<g><path style="opacity:0.99" fill="#6dc8b8" d="M 1297.5,5450.5 C 1303.5,5450.5 1309.5,5450.5 1315.5,5450.5C 1315.5,5481.5 1315.5,5512.5 1315.5,5543.5C 1309.5,5543.5 1303.5,5543.5 1297.5,5543.5C 1297.5,5512.5 1297.5,5481.5 1297.5,5450.5 Z"/></g>
<g><path style="opacity:0.989" fill="#71c9b1" d="M 1315.5,5450.5 C 1322.35,5450.18 1329.02,5450.51 1335.5,5451.5C 1335.5,5482.5 1335.5,5513.5 1335.5,5544.5C 1328.92,5543.54 1322.26,5543.21 1315.5,5543.5C 1315.5,5512.5 1315.5,5481.5 1315.5,5450.5 Z"/></g>
<g><path style="opacity:0.989" fill="#fece54" d="M 3049.5,6020.5 C 3049.5,5848.5 3049.5,5676.5 3049.5,5504.5C 3094.28,5470.73 3144.95,5452.9 3201.5,5451C 3265.95,5446.03 3325.62,5460.36 3380.5,5494C 3422.34,5522.18 3451.84,5560.01 3469,5607.5C 3473.51,5622.53 3473.51,5637.53 3469,5652.5C 3462.66,5667.42 3451.5,5676.25 3435.5,5679C 3410.33,5683.16 3390.83,5674.66 3377,5653.5C 3343.91,5572.69 3283.74,5536.52 3196.5,5545C 3153.77,5552.11 3119.94,5573.27 3095,5608.5C 3074.27,5639 3061.6,5672.67 3057,5709.5C 3049.33,5762.77 3053.33,5815.1 3069,5866.5C 3102.98,5955.92 3167.48,5993.42 3262.5,5979C 3306.93,5970.89 3340.43,5947.39 3363,5908.5C 3369.32,5894.52 3376.65,5881.19 3385,5868.5C 3391.63,5861.27 3399.79,5856.77 3409.5,5855C 3432.27,5850.81 3450.77,5857.64 3465,5875.5C 3471.2,5888.14 3473.2,5901.47 3471,5915.5C 3467.38,5933.07 3460.72,5949.4 3451,5964.5C 3423.35,6007.47 3385.52,6037.97 3337.5,6056C 3291.81,6072 3244.81,6078 3196.5,6074C 3147.95,6071.37 3103.29,6057.04 3062.5,6031C 3057.73,6027.96 3053.4,6024.46 3049.5,6020.5 Z"/></g>
<g><path style="opacity:0.991" fill="#ed5564" d="M 4616.5,5957.5 C 4616.5,5827.83 4616.5,5698.17 4616.5,5568.5C 4655.69,5508.53 4710.69,5471.36 4781.5,5457C 4843.59,5445.03 4904.59,5449.03 4964.5,5469C 5036.79,5497.96 5086.96,5548.79 5115,5621.5C 5131.48,5667.2 5139.31,5714.37 5138.5,5763C 5139.75,5820.43 5128.58,5875.27 5105,5927.5C 5057.79,6017.95 4982.95,6066.78 4880.5,6074C 4826.94,6078.63 4775.27,6070.97 4725.5,6051C 4679.72,6030.71 4643.38,5999.54 4616.5,5957.5 Z M 4837.5,5543.5 C 4917.98,5540.3 4974.48,5575.3 5007,5648.5C 5023.56,5691.98 5030.23,5736.98 5027,5783.5C 5025.77,5826.75 5014.44,5867.08 4993,5904.5C 4955.25,5962.28 4901.75,5987.78 4832.5,5981C 4777.35,5974.52 4735.85,5947.35 4708,5899.5C 4690.72,5867.67 4680.72,5833.67 4678,5797.5C 4672.95,5748.96 4678.28,5701.63 4694,5655.5C 4707.88,5618.63 4731.05,5589.13 4763.5,5567C 4786.5,5553.59 4811.16,5545.76 4837.5,5543.5 Z"/></g>
<g><path style="opacity:0.989" fill="#69c7bf" d="M 1297.5,5450.5 C 1297.5,5481.5 1297.5,5512.5 1297.5,5543.5C 1291.54,5544.5 1285.54,5545.5 1279.5,5546.5C 1279.5,5515.17 1279.5,5483.83 1279.5,5452.5C 1285.44,5451.68 1291.44,5451.02 1297.5,5450.5 Z"/></g>
<g><path style="opacity:0.992" fill="#75caab" d="M 1335.5,5451.5 C 1341.53,5451.43 1347.53,5451.76 1353.5,5452.5C 1353.5,5484.17 1353.5,5515.83 1353.5,5547.5C 1347.66,5545.73 1341.66,5544.73 1335.5,5544.5C 1335.5,5513.5 1335.5,5482.5 1335.5,5451.5 Z"/></g>
<g><path style="opacity:0.991" fill="#65c6c4" d="M 1279.5,5452.5 C 1279.5,5483.83 1279.5,5515.17 1279.5,5546.5C 1272.75,5548.19 1266.08,5550.19 1259.5,5552.5C 1259.5,5519.83 1259.5,5487.17 1259.5,5454.5C 1266.13,5453.5 1272.8,5452.84 1279.5,5452.5 Z"/></g>
<g><path style="opacity:0.99" fill="#79cba5" d="M 1353.5,5452.5 C 1359.16,5453.25 1364.82,5453.92 1370.5,5454.5C 1370.5,5486.83 1370.5,5519.17 1370.5,5551.5C 1364.87,5550.01 1359.2,5548.68 1353.5,5547.5C 1353.5,5515.83 1353.5,5484.17 1353.5,5452.5 Z"/></g>
<g><path style="opacity:0.99" fill="#a4d566" d="M 1700.5,5453.5 C 1717.52,5451.44 1733.19,5454.94 1747.5,5464C 1757.41,5472.98 1763.24,5484.15 1765,5497.5C 1765.67,5674.17 1765.67,5850.83 1765,6027.5C 1759.53,6057.29 1741.53,6072.29 1711,6072.5C 1678.38,6070.88 1660.38,6053.88 1657,6021.5C 1656.33,5849.17 1656.33,5676.83 1657,5504.5C 1658.5,5476.18 1673,5459.18 1700.5,5453.5 Z"/></g>
<g><path style="opacity:0.994" fill="#b7d362" d="M 2548.5,5599.5 C 2548.5,5653.5 2548.5,5707.5 2548.5,5761.5C 2519.86,5722.25 2491.7,5682.58 2464,5642.5C 2462.99,5641.66 2461.82,5641.33 2460.5,5641.5C 2460.67,5769.5 2460.5,5897.5 2460,6025.5C 2456.26,6056.06 2438.93,6071.72 2408,6072.5C 2378.8,6072.29 2361.47,6057.96 2356,6029.5C 2355.01,5850.47 2355.34,5671.47 2357,5492.5C 2363.16,5469.68 2377.99,5456.85 2401.5,5454C 2423.65,5450.4 2442.48,5456.57 2458,5472.5C 2488.67,5514.51 2518.83,5556.84 2548.5,5599.5 Z"/></g>
<g><path style="opacity:0.999" fill="#d7d15c" d="M 2827.5,5457.5 C 2827.5,5660.83 2827.5,5864.17 2827.5,6067.5C 2812.93,6072.83 2798.26,6073.5 2783.5,6069.5C 2783.5,5865.17 2783.5,5660.83 2783.5,5456.5C 2798.3,5452.24 2812.97,5452.57 2827.5,5457.5 Z"/></g>
<g><path style="opacity:0.99" fill="#ec5563" d="M 5223.5,5453.5 C 5245.03,5450.69 5262.53,5457.69 5276,5474.5C 5324.76,5545.7 5373.76,5616.7 5423,5687.5C 5425.63,5685.19 5427.97,5682.53 5430,5679.5C 5476,5612.83 5522,5546.17 5568,5479.5C 5587.26,5452.04 5612.1,5445.87 5642.5,5461C 5663.12,5474.29 5669.96,5492.79 5663,5516.5C 5661.55,5521.4 5659.55,5526.07 5657,5530.5C 5600.15,5608.01 5543.32,5685.51 5486.5,5763C 5540.54,5839.05 5595.38,5914.55 5651,5989.5C 5662.41,6008.68 5663.41,6028.35 5654,6048.5C 5636.64,6070.39 5614.47,6077.22 5587.5,6069C 5575.48,6062.64 5565.64,6053.81 5558,6042.5C 5514.67,5981.17 5471.33,5919.83 5428,5858.5C 5424.31,5853.15 5420.31,5848.15 5416,5843.5C 5412.56,5846.35 5409.56,5849.69 5407,5853.5C 5361,5918.83 5315,5984.17 5269,6049.5C 5255.23,6068.65 5236.73,6075.81 5213.5,6071C 5182.21,6061.9 5169.71,6041.4 5176,6009.5C 5177.78,6003.93 5180.12,5998.6 5183,5993.5C 5238.67,5916.14 5293.84,5838.48 5348.5,5760.5C 5295.95,5686.44 5242.78,5612.77 5189,5539.5C 5177.06,5520.34 5175.39,5500.34 5184,5479.5C 5193.51,5465.17 5206.68,5456.5 5223.5,5453.5 Z"/></g>
<g><path style="opacity:0.99" fill="#61c5cb" d="M 1259.5,5454.5 C 1259.5,5487.17 1259.5,5519.83 1259.5,5552.5C 1252.38,5555.22 1245.38,5558.22 1238.5,5561.5C 1238.5,5527.17 1238.5,5492.83 1238.5,5458.5C 1245.51,5457.17 1252.51,5455.83 1259.5,5454.5 Z"/></g>
<g><path style="opacity:0.991" fill="#7dcc9f" d="M 1370.5,5454.5 C 1376.5,5455.7 1382.5,5457.03 1388.5,5458.5C 1388.5,5492.17 1388.5,5525.83 1388.5,5559.5C 1382.44,5556.8 1376.44,5554.13 1370.5,5551.5C 1370.5,5519.17 1370.5,5486.83 1370.5,5454.5 Z"/></g>
<g><path style="opacity:0.998" fill="#d3d15c" d="M 2783.5,5456.5 C 2783.5,5660.83 2783.5,5865.17 2783.5,6069.5C 2777.25,6068.54 2771.59,6066.21 2766.5,6062.5C 2766.5,5864.17 2766.5,5665.83 2766.5,5467.5C 2771.31,5462.59 2776.98,5458.92 2783.5,5456.5 Z"/></g>
<g><path style="opacity:0.997" fill="#dcd05b" d="M 2827.5,5457.5 C 2843.92,5464.78 2853.42,5477.45 2856,5495.5C 2856.67,5673.5 2856.67,5851.5 2856,6029.5C 2853.49,6047.55 2843.99,6060.22 2827.5,6067.5C 2827.5,5864.17 2827.5,5660.83 2827.5,5457.5 Z"/></g>
<g><path style="opacity:0.99" fill="#81cd98" d="M 1388.5,5458.5 C 1395.17,5460.17 1401.83,5461.83 1408.5,5463.5C 1408.5,5499.5 1408.5,5535.5 1408.5,5571.5C 1402.16,5567 1395.5,5563 1388.5,5559.5C 1388.5,5525.83 1388.5,5492.17 1388.5,5458.5 Z"/></g>
<g><path style="opacity:0.996" fill="#aad465" d="M 2101.5,5460.5 C 2101.5,5491.17 2101.5,5521.83 2101.5,5552.5C 2060.83,5552.5 2020.17,5552.5 1979.5,5552.5C 1979.5,5606.5 1979.5,5660.5 1979.5,5714.5C 2020.17,5714.5 2060.83,5714.5 2101.5,5714.5C 2101.5,5743.5 2101.5,5772.5 2101.5,5801.5C 2060.83,5801.5 2020.17,5801.5 1979.5,5801.5C 1979.5,5858.5 1979.5,5915.5 1979.5,5972.5C 2020.17,5972.5 2060.83,5972.5 2101.5,5972.5C 2101.5,6003.17 2101.5,6033.83 2101.5,6064.5C 2038.5,6064.67 1975.5,6064.5 1912.5,6064C 1885.2,6057.28 1871.37,6039.78 1871,6011.5C 1870.33,5845.83 1870.33,5680.17 1871,5514.5C 1870.77,5491.77 1880.6,5475.27 1900.5,5465C 1905.34,5463.05 1910.34,5461.72 1915.5,5461C 1977.5,5460.5 2039.5,5460.33 2101.5,5460.5 Z"/></g>
<g><path style="opacity:0.991" fill="#b0d464" d="M 2101.5,5460.5 C 2143.83,5460.33 2186.17,5460.5 2228.5,5461C 2254.68,5464.84 2268.35,5480.01 2269.5,5506.5C 2268.85,5529.64 2257.51,5544.47 2235.5,5551C 2190.87,5552.47 2146.2,5552.97 2101.5,5552.5C 2101.5,5521.83 2101.5,5491.17 2101.5,5460.5 Z"/></g>
<g><path style="opacity:0.992" fill="#fecd54" d="M 3929.5,5462.5 C 3929.5,5491.83 3929.5,5521.17 3929.5,5550.5C 3927.59,5551.18 3925.59,5551.68 3923.5,5552C 3840.17,5552.5 3756.83,5552.67 3673.5,5552.5C 3673.5,5606.5 3673.5,5660.5 3673.5,5714.5C 3751.17,5714.33 3828.83,5714.5 3906.5,5715C 3914.85,5715.62 3922.51,5718.12 3929.5,5722.5C 3929.5,5746.17 3929.5,5769.83 3929.5,5793.5C 3923.23,5797.87 3916.23,5800.37 3908.5,5801C 3830.17,5801.5 3751.83,5801.67 3673.5,5801.5C 3673.5,5858.5 3673.5,5915.5 3673.5,5972.5C 3755.5,5972.33 3837.5,5972.5 3919.5,5973C 3922.85,5973.46 3926.19,5973.96 3929.5,5974.5C 3929.5,6003.83 3929.5,6033.17 3929.5,6062.5C 3928.39,6063.29 3927.06,6063.79 3925.5,6064C 3819.17,6064.67 3712.83,6064.67 3606.5,6064C 3582.48,6059.31 3568.64,6044.81 3565,6020.5C 3564.33,5848.83 3564.33,5677.17 3565,5505.5C 3566.99,5486.69 3576.49,5473.19 3593.5,5465C 3598.68,5463.04 3604.01,5461.71 3609.5,5461C 3713.83,5460.33 3818.17,5460.33 3922.5,5461C 3924.87,5461.44 3927.2,5461.94 3929.5,5462.5 Z"/></g>
<g><path style="opacity:0.999" fill="#f7985b" d="M 4122.5,5460.5 C 4122.5,5661.83 4122.5,5863.17 4122.5,6064.5C 4112.17,6064.5 4101.83,6064.5 4091.5,6064.5C 4091.5,5863.5 4091.5,5662.5 4091.5,5461.5C 4101.78,5460.55 4112.11,5460.21 4122.5,5460.5 Z"/></g>
<g><path style="opacity:1" fill="#f6925b" d="M 4122.5,5460.5 C 4131.5,5460.5 4140.5,5460.5 4149.5,5460.5C 4149.5,5661.83 4149.5,5863.17 4149.5,6064.5C 4140.5,6064.5 4131.5,6064.5 4122.5,6064.5C 4122.5,5863.17 4122.5,5661.83 4122.5,5460.5 Z"/></g>
<g><path style="opacity:0.977" fill="#f58d5c" d="M 4149.5,5460.5 C 4159.83,5460.5 4170.17,5460.5 4180.5,5460.5C 4180.5,5488.83 4180.5,5517.17 4180.5,5545.5C 4172.83,5545.5 4165.17,5545.5 4157.5,5545.5C 4157.5,5601.83 4157.5,5658.17 4157.5,5714.5C 4165.17,5714.5 4172.83,5714.5 4180.5,5714.5C 4180.5,5740.5 4180.5,5766.5 4180.5,5792.5C 4172.83,5792.5 4165.17,5792.5 4157.5,5792.5C 4157.5,5854.83 4157.5,5917.17 4157.5,5979.5C 4165.17,5979.5 4172.83,5979.5 4180.5,5979.5C 4180.5,6007.83 4180.5,6036.17 4180.5,6064.5C 4170.17,6064.5 4159.83,6064.5 4149.5,6064.5C 4149.5,5863.17 4149.5,5661.83 4149.5,5460.5 Z"/></g>
<g><path style="opacity:0.994" fill="#f4855d" d="M 4180.5,5460.5 C 4190.5,5460.5 4200.5,5460.5 4210.5,5460.5C 4210.5,5488.83 4210.5,5517.17 4210.5,5545.5C 4200.5,5545.5 4190.5,5545.5 4180.5,5545.5C 4180.5,5517.17 4180.5,5488.83 4180.5,5460.5 Z"/></g>
<g><path style="opacity:0.994" fill="#f37f5e" d="M 4210.5,5460.5 C 4224.17,5460.5 4237.83,5460.5 4251.5,5460.5C 4251.5,5488.83 4251.5,5517.17 4251.5,5545.5C 4237.83,5545.5 4224.17,5545.5 4210.5,5545.5C 4210.5,5517.17 4210.5,5488.83 4210.5,5460.5 Z"/></g>
<g><path style="opacity:0.994" fill="#f2795f" d="M 4251.5,5460.5 C 4263.5,5460.5 4275.5,5460.5 4287.5,5460.5C 4287.5,5489.17 4287.5,5517.83 4287.5,5546.5C 4275.55,5545.54 4263.55,5545.21 4251.5,5545.5C 4251.5,5517.17 4251.5,5488.83 4251.5,5460.5 Z"/></g>
<g><path style="opacity:0.991" fill="#f17360" d="M 4287.5,5460.5 C 4301.18,5460.38 4314.85,5460.72 4328.5,5461.5C 4328.5,5492.83 4328.5,5524.17 4328.5,5555.5C 4315.37,5550.13 4301.7,5547.13 4287.5,5546.5C 4287.5,5517.83 4287.5,5489.17 4287.5,5460.5 Z"/></g>
<g><path style="opacity:0.989" fill="#5dc4d1" d="M 1238.5,5458.5 C 1238.5,5492.83 1238.5,5527.17 1238.5,5561.5C 1231.58,5565.74 1224.91,5570.41 1218.5,5575.5C 1218.5,5538.5 1218.5,5501.5 1218.5,5464.5C 1225.11,5462.3 1231.77,5460.3 1238.5,5458.5 Z"/></g>
<g><path style="opacity:0.998" fill="#f89f5a" d="M 4091.5,5461.5 C 4091.5,5662.5 4091.5,5863.5 4091.5,6064.5C 4085.71,6063.18 4080.04,6061.35 4074.5,6059C 4071.21,6057.53 4068.55,6055.37 4066.5,6052.5C 4066.5,5859.17 4066.5,5665.83 4066.5,5472.5C 4073.61,5466.34 4081.95,5462.67 4091.5,5461.5 Z"/></g>
<g><path style="opacity:0.988" fill="#f06d60" d="M 4328.5,5461.5 C 4344.35,5462.97 4359.68,5466.3 4374.5,5471.5C 4374.5,5561.83 4374.5,5652.17 4374.5,5742.5C 4369.19,5743.81 4369.19,5745.14 4374.5,5746.5C 4374.5,5771.83 4374.5,5797.17 4374.5,5822.5C 4361.17,5810.83 4345.84,5802.83 4328.5,5798.5C 4328.5,5765.83 4328.5,5733.17 4328.5,5700.5C 4357.97,5685.31 4372.63,5660.98 4372.5,5627.5C 4372.58,5594.3 4357.91,5570.3 4328.5,5555.5C 4328.5,5524.17 4328.5,5492.83 4328.5,5461.5 Z"/></g>
<g><path style="opacity:0.984" fill="#fdc355" d="M 3929.5,5462.5 C 3951.13,5469.07 3962.13,5483.74 3962.5,5506.5C 3962.62,5529.63 3951.62,5544.3 3929.5,5550.5C 3929.5,5521.17 3929.5,5491.83 3929.5,5462.5 Z"/></g>
<g><path style="opacity:0.99" fill="#59c3d7" d="M 1218.5,5464.5 C 1218.5,5501.5 1218.5,5538.5 1218.5,5575.5C 1210.84,5581.49 1203.84,5588.16 1197.5,5595.5C 1197.5,5554.5 1197.5,5513.5 1197.5,5472.5C 1204.11,5469.07 1211.11,5466.4 1218.5,5464.5 Z"/></g>
<g><path style="opacity:0.988" fill="#84cd93" d="M 1408.5,5463.5 C 1411.98,5464.66 1415.32,5465.99 1418.5,5467.5C 1418.5,5504.5 1418.5,5541.5 1418.5,5578.5C 1415.17,5576.17 1411.83,5573.83 1408.5,5571.5C 1408.5,5535.5 1408.5,5499.5 1408.5,5463.5 Z"/></g>
<g><path style="opacity:0.995" fill="#d0d15d" d="M 2766.5,5467.5 C 2766.5,5665.83 2766.5,5864.17 2766.5,6062.5C 2755.72,6053.72 2746.72,6043.39 2739.5,6031.5C 2739.5,5977.83 2739.5,5924.17 2739.5,5870.5C 2742.8,5873.74 2745.63,5877.4 2748,5881.5C 2749.11,5883.04 2750.61,5883.7 2752.5,5883.5C 2752.33,5754.17 2752.5,5624.83 2753,5495.5C 2754.6,5484.64 2759.1,5475.31 2766.5,5467.5 Z"/></g>
<g><path style="opacity:0.988" fill="#88cf8d" d="M 1418.5,5467.5 C 1426.41,5469.91 1434.08,5472.91 1441.5,5476.5C 1441.5,5518.5 1441.5,5560.5 1441.5,5602.5C 1433.82,5594.46 1426.16,5586.46 1418.5,5578.5C 1418.5,5541.5 1418.5,5504.5 1418.5,5467.5 Z"/></g>
<g><path style="opacity:0.995" fill="#ef6761" d="M 4374.5,5471.5 C 4399.27,5478.21 4420.6,5490.54 4438.5,5508.5C 4438.5,5575.17 4438.5,5641.83 4438.5,5708.5C 4420.95,5726.61 4399.62,5737.95 4374.5,5742.5C 4374.5,5652.17 4374.5,5561.83 4374.5,5471.5 Z"/></g>
<g><path style="opacity:0.989" fill="#55c2dd" d="M 1197.5,5472.5 C 1197.5,5513.5 1197.5,5554.5 1197.5,5595.5C 1189.66,5605.86 1182.33,5616.52 1175.5,5627.5C 1175.5,5579.17 1175.5,5530.83 1175.5,5482.5C 1182.59,5478.62 1189.92,5475.29 1197.5,5472.5 Z"/></g>
<g><path style="opacity:0.971" fill="#f9a459" d="M 4066.5,5472.5 C 4066.5,5665.83 4066.5,5859.17 4066.5,6052.5C 4064.63,6052.14 4063.13,6051.14 4062,6049.5C 4054.67,6040.5 4050.34,6030.17 4049,6018.5C 4048.33,5848.17 4048.33,5677.83 4049,5507.5C 4050.08,5493.33 4055.92,5481.66 4066.5,5472.5 Z"/></g>
<g><path style="opacity:0.988" fill="#8cd086" d="M 1441.5,5476.5 C 1447.32,5479.25 1452.99,5482.25 1458.5,5485.5C 1458.5,5533.5 1458.5,5581.5 1458.5,5629.5C 1453.09,5620.34 1447.42,5611.34 1441.5,5602.5C 1441.5,5560.5 1441.5,5518.5 1441.5,5476.5 Z"/></g>
<g><path style="opacity:0.988" fill="#52c1e2" d="M 1175.5,5482.5 C 1175.5,5530.83 1175.5,5579.17 1175.5,5627.5C 1169.38,5639.55 1164.04,5651.88 1159.5,5664.5C 1159.5,5607.17 1159.5,5549.83 1159.5,5492.5C 1164.54,5488.81 1169.88,5485.47 1175.5,5482.5 Z"/></g>
<g><path style="opacity:0.99" fill="#90d17f" d="M 1458.5,5485.5 C 1464.5,5489.17 1470.5,5492.83 1476.5,5496.5C 1476.5,5551.5 1476.5,5606.5 1476.5,5661.5C 1473.54,5658.94 1471.04,5655.94 1469,5652.5C 1464.94,5645.05 1461.44,5637.38 1458.5,5629.5C 1458.5,5581.5 1458.5,5533.5 1458.5,5485.5 Z"/></g>
<g><path style="opacity:0.992" fill="#94d279" d="M 1476.5,5496.5 C 1482.48,5500.48 1488.14,5504.81 1493.5,5509.5C 1493.5,5564.5 1493.5,5619.5 1493.5,5674.5C 1486.36,5672.01 1480.69,5667.68 1476.5,5661.5C 1476.5,5606.5 1476.5,5551.5 1476.5,5496.5 Z"/></g>
<g><path style="opacity:0.993" fill="#4fc0e7" d="M 1159.5,5492.5 C 1159.5,5549.83 1159.5,5607.17 1159.5,5664.5C 1140.9,5730.16 1140.9,5795.82 1159.5,5861.5C 1159.5,5918.83 1159.5,5976.17 1159.5,6033.5C 1105.62,5997.41 1069.45,5948.07 1051,5885.5C 1032.59,5816.86 1029.59,5747.53 1042,5677.5C 1053.46,5612.39 1083.3,5557.56 1131.5,5513C 1140.43,5505.56 1149.76,5498.73 1159.5,5492.5 Z"/></g>
<g><path style="opacity:0.997" fill="#f8ce54" d="M 3049.5,5504.5 C 3049.5,5676.5 3049.5,5848.5 3049.5,6020.5C 3046.55,6018.88 3043.88,6016.88 3041.5,6014.5C 3041.5,5846.83 3041.5,5679.17 3041.5,5511.5C 3044.13,5509.18 3046.79,5506.84 3049.5,5504.5 Z"/></g>
<g><path style="opacity:0.981" fill="#ef6162" d="M 4438.5,5508.5 C 4467.19,5536.35 4481.19,5570.51 4480.5,5611C 4479.98,5649.52 4465.98,5682.02 4438.5,5708.5C 4438.5,5641.83 4438.5,5575.17 4438.5,5508.5 Z"/></g>
<g><path style="opacity:0.992" fill="#98d373" d="M 1493.5,5509.5 C 1499.13,5513.46 1504.13,5518.13 1508.5,5523.5C 1508.5,5575.5 1508.5,5627.5 1508.5,5679.5C 1503.08,5678.81 1498.08,5677.14 1493.5,5674.5C 1493.5,5619.5 1493.5,5564.5 1493.5,5509.5 Z"/></g>
<g><path style="opacity:0.997" fill="#f5cf55" d="M 3041.5,5511.5 C 3041.5,5679.17 3041.5,5846.83 3041.5,6014.5C 3028.07,6003.74 3016.4,5991.4 3006.5,5977.5C 3006.5,5834.5 3006.5,5691.5 3006.5,5548.5C 3016.4,5534.6 3028.07,5522.26 3041.5,5511.5 Z"/></g>
<g><path style="opacity:0.988" fill="#ec5563" d="M 7454.5,5527.5 C 7506.5,5527.33 7558.5,5527.5 7610.5,5528C 7687.39,5537.56 7720.56,5580.73 7710,5657.5C 7701.35,5689.64 7681.85,5712.47 7651.5,5726C 7633.21,5733.39 7614.21,5737.73 7594.5,5739C 7547.83,5739.5 7501.17,5739.67 7454.5,5739.5C 7454.5,5668.83 7454.5,5598.17 7454.5,5527.5 Z M 7496.5,5569.5 C 7496.5,5612.17 7496.5,5654.83 7496.5,5697.5C 7525.84,5697.67 7555.17,5697.5 7584.5,5697C 7600.65,5696.48 7616.32,5693.48 7631.5,5688C 7657.11,5677.71 7670.11,5658.71 7670.5,5631C 7671.11,5610.9 7663.45,5594.9 7647.5,5583C 7633.59,5575.1 7618.59,5570.77 7602.5,5570C 7567.17,5569.5 7531.83,5569.33 7496.5,5569.5 Z"/></g>
<g><path style="opacity:0.993" fill="#9cd46d" d="M 1508.5,5523.5 C 1514.86,5529.23 1520.53,5535.56 1525.5,5542.5C 1525.5,5588.17 1525.5,5633.83 1525.5,5679.5C 1519.83,5679.5 1514.17,5679.5 1508.5,5679.5C 1508.5,5627.5 1508.5,5575.5 1508.5,5523.5 Z"/></g>
<g><path style="opacity:0.979" fill="#9fd568" d="M 1525.5,5542.5 C 1541.78,5562.38 1553.95,5584.71 1562,5609.5C 1566.04,5623.57 1566.04,5637.57 1562,5651.5C 1555.26,5667.73 1543.09,5677.06 1525.5,5679.5C 1525.5,5633.83 1525.5,5588.17 1525.5,5542.5 Z"/></g>
<g><path style="opacity:0.995" fill="#f1cf56" d="M 3006.5,5548.5 C 3006.5,5691.5 3006.5,5834.5 3006.5,5977.5C 2991.81,5960.14 2980.14,5940.8 2971.5,5919.5C 2971.5,5815.17 2971.5,5710.83 2971.5,5606.5C 2980.15,5585.16 2991.82,5565.83 3006.5,5548.5 Z"/></g>
<g><path style="opacity:0.994" fill="#ed5863" d="M 4616.5,5568.5 C 4616.5,5698.17 4616.5,5827.83 4616.5,5957.5C 4593.76,5923.14 4578.92,5885.47 4572,5844.5C 4563.72,5791.89 4563.39,5739.22 4571,5686.5C 4577.18,5648.96 4589.51,5613.63 4608,5580.5C 4610.61,5576.26 4613.44,5572.26 4616.5,5568.5 Z"/></g>
<g><path style="opacity:0.989" fill="#bdd361" d="M 2548.5,5599.5 C 2578.15,5641.46 2607.82,5683.46 2637.5,5725.5C 2637.5,5779.5 2637.5,5833.5 2637.5,5887.5C 2607.34,5845.86 2577.68,5803.86 2548.5,5761.5C 2548.5,5707.5 2548.5,5653.5 2548.5,5599.5 Z"/></g>
<g><path style="opacity:0.973" fill="#eccf57" d="M 2971.5,5606.5 C 2971.5,5710.83 2971.5,5815.17 2971.5,5919.5C 2956.19,5884.17 2947.03,5847.17 2944,5808.5C 2938.18,5749.78 2943.52,5692.11 2960,5635.5C 2963.18,5625.46 2967.01,5615.79 2971.5,5606.5 Z"/></g>
<g><path style="opacity:0.99" fill="#f17360" d="M 4328.5,5700.5 C 4328.5,5733.17 4328.5,5765.83 4328.5,5798.5C 4315.01,5795.38 4301.34,5793.38 4287.5,5792.5C 4287.5,5765.83 4287.5,5739.17 4287.5,5712.5C 4301.79,5710.51 4315.46,5706.51 4328.5,5700.5 Z"/></g>
<g><path style="opacity:0.988" fill="#f2795f" d="M 4287.5,5712.5 C 4287.5,5739.17 4287.5,5765.83 4287.5,5792.5C 4275.5,5792.5 4263.5,5792.5 4251.5,5792.5C 4251.5,5766.5 4251.5,5740.5 4251.5,5714.5C 4263.57,5714.79 4275.57,5714.12 4287.5,5712.5 Z"/></g>
<g><path style="opacity:0.984" fill="#b0d464" d="M 2101.5,5714.5 C 2138.83,5714.33 2176.17,5714.5 2213.5,5715C 2239,5718.16 2252.34,5732.5 2253.5,5758C 2253.44,5780.06 2242.78,5794.06 2221.5,5800C 2181.53,5801.46 2141.53,5801.96 2101.5,5801.5C 2101.5,5772.5 2101.5,5743.5 2101.5,5714.5 Z"/></g>
<g><path style="opacity:0.984" fill="#f4855d" d="M 4180.5,5714.5 C 4190.5,5714.5 4200.5,5714.5 4210.5,5714.5C 4210.5,5740.5 4210.5,5766.5 4210.5,5792.5C 4200.5,5792.5 4190.5,5792.5 4180.5,5792.5C 4180.5,5766.5 4180.5,5740.5 4180.5,5714.5 Z"/></g>
<g><path style="opacity:0.984" fill="#f37f5e" d="M 4210.5,5714.5 C 4224.17,5714.5 4237.83,5714.5 4251.5,5714.5C 4251.5,5740.5 4251.5,5766.5 4251.5,5792.5C 4237.83,5792.5 4224.17,5792.5 4210.5,5792.5C 4210.5,5766.5 4210.5,5740.5 4210.5,5714.5 Z"/></g>
<g><path style="opacity:0.953" fill="#fdc555" d="M 3929.5,5722.5 C 3944.92,5734.44 3950.42,5750.1 3946,5769.5C 3943.69,5779.8 3938.19,5787.8 3929.5,5793.5C 3929.5,5769.83 3929.5,5746.17 3929.5,5722.5 Z"/></g>
<g><path style="opacity:0.989" fill="#c4d260" d="M 2637.5,5725.5 C 2653.55,5747.55 2669.22,5769.88 2684.5,5792.5C 2684.5,5846.17 2684.5,5899.83 2684.5,5953.5C 2668.35,5931.89 2652.69,5909.89 2637.5,5887.5C 2637.5,5833.5 2637.5,5779.5 2637.5,5725.5 Z"/></g>
<g><path style="opacity:0.992" fill="#ef6661" d="M 4374.5,5746.5 C 4397.33,5748.56 4418.66,5755.22 4438.5,5766.5C 4438.5,5854.5 4438.5,5942.5 4438.5,6030.5C 4418.88,6043.31 4397.54,6052.31 4374.5,6057.5C 4374.5,6021.5 4374.5,5985.5 4374.5,5949.5C 4391.24,5931.8 4399.24,5910.63 4398.5,5886C 4399.24,5861.38 4391.24,5840.21 4374.5,5822.5C 4374.5,5797.17 4374.5,5771.83 4374.5,5746.5 Z"/></g>
<g><path style="opacity:0.99" fill="#ee6062" d="M 4438.5,5766.5 C 4485.91,5795.47 4509.58,5837.97 4509.5,5894C 4510.33,5942.32 4493.33,5982.98 4458.5,6016C 4452.23,6021.44 4445.57,6026.27 4438.5,6030.5C 4438.5,5942.5 4438.5,5854.5 4438.5,5766.5 Z"/></g>
<g><path style="opacity:0.984" fill="#ec5563" d="M 7454.5,5773.5 C 7504.5,5773.33 7554.5,5773.5 7604.5,5774C 7639.61,5773.82 7671.61,5783.48 7700.5,5803C 7727.01,5825.37 7739.68,5854.03 7738.5,5889C 7736.62,5950.23 7705.62,5987.23 7645.5,6000C 7635.92,6001.99 7626.26,6003.32 7616.5,6004C 7562.5,6004.5 7508.5,6004.67 7454.5,6004.5C 7454.5,5927.5 7454.5,5850.5 7454.5,5773.5 Z M 7496.5,5816.5 C 7496.5,5865.17 7496.5,5913.83 7496.5,5962.5C 7533.17,5962.67 7569.83,5962.5 7606.5,5962C 7622.96,5961.44 7638.96,5958.44 7654.5,5953C 7682.74,5941.22 7696.74,5919.89 7696.5,5889C 7697.03,5866.74 7688.7,5848.74 7671.5,5835C 7653.07,5824.06 7633.07,5818.06 7611.5,5817C 7573.17,5816.5 7534.83,5816.33 7496.5,5816.5 Z"/></g>
<g><path style="opacity:0.989" fill="#cad25f" d="M 2684.5,5792.5 C 2703.6,5817.94 2721.94,5843.94 2739.5,5870.5C 2739.5,5924.17 2739.5,5977.83 2739.5,6031.5C 2720.68,6005.86 2702.34,5979.86 2684.5,5953.5C 2684.5,5899.83 2684.5,5846.17 2684.5,5792.5 Z"/></g>
<g><path style="opacity:0.993" fill="#98d373" d="M 1508.5,5854.5 C 1508.5,5905.17 1508.5,5955.83 1508.5,6006.5C 1504.39,6011.95 1499.39,6016.28 1493.5,6019.5C 1493.5,5965.5 1493.5,5911.5 1493.5,5857.5C 1498.25,5855.4 1503.25,5854.4 1508.5,5854.5 Z"/></g>
<g><path style="opacity:0.994" fill="#9cd46d" d="M 1508.5,5854.5 C 1514.36,5854.18 1520.02,5854.51 1525.5,5855.5C 1525.5,5899.83 1525.5,5944.17 1525.5,5988.5C 1520.48,5995.18 1514.81,6001.18 1508.5,6006.5C 1508.5,5955.83 1508.5,5905.17 1508.5,5854.5 Z"/></g>
<g><path style="opacity:0.978" fill="#9fd568" d="M 1525.5,5855.5 C 1547.06,5859.23 1559.9,5871.89 1564,5893.5C 1565.46,5909.09 1563.12,5924.09 1557,5938.5C 1549.23,5957.09 1538.73,5973.75 1525.5,5988.5C 1525.5,5944.17 1525.5,5899.83 1525.5,5855.5 Z"/></g>
<g><path style="opacity:0.991" fill="#94d279" d="M 1493.5,5857.5 C 1493.5,5911.5 1493.5,5965.5 1493.5,6019.5C 1488.14,6024.19 1482.48,6028.52 1476.5,6032.5C 1476.5,5978.5 1476.5,5924.5 1476.5,5870.5C 1480.74,5864.25 1486.41,5859.92 1493.5,5857.5 Z"/></g>
<g><path style="opacity:0.988" fill="#52c1e2" d="M 1159.5,5861.5 C 1164.04,5874.09 1169.37,5886.42 1175.5,5898.5C 1175.5,5946.5 1175.5,5994.5 1175.5,6042.5C 1169.87,6040.02 1164.54,6037.02 1159.5,6033.5C 1159.5,5976.17 1159.5,5918.83 1159.5,5861.5 Z"/></g>
<g><path style="opacity:0.989" fill="#90d17f" d="M 1476.5,5870.5 C 1476.5,5924.5 1476.5,5978.5 1476.5,6032.5C 1470.8,6036.35 1464.8,6039.69 1458.5,6042.5C 1458.5,5996.17 1458.5,5949.83 1458.5,5903.5C 1463.22,5891.72 1469.22,5880.72 1476.5,5870.5 Z"/></g>
<g><path style="opacity:0.989" fill="#55c2dd" d="M 1175.5,5898.5 C 1182.33,5909.48 1189.66,5920.14 1197.5,5930.5C 1197.5,5971.5 1197.5,6012.5 1197.5,6053.5C 1189.85,6050.34 1182.52,6046.68 1175.5,6042.5C 1175.5,5994.5 1175.5,5946.5 1175.5,5898.5 Z"/></g>
<g><path style="opacity:0.988" fill="#8cd086" d="M 1458.5,5903.5 C 1458.5,5949.83 1458.5,5996.17 1458.5,6042.5C 1453.25,6045.96 1447.59,6048.62 1441.5,6050.5C 1441.5,6010.17 1441.5,5969.83 1441.5,5929.5C 1447.68,5921.14 1453.34,5912.47 1458.5,5903.5 Z"/></g>
<g><path style="opacity:0.988" fill="#59c3d7" d="M 1197.5,5930.5 C 1204.53,5937.19 1211.53,5943.86 1218.5,5950.5C 1218.5,5987.17 1218.5,6023.83 1218.5,6060.5C 1211.29,6058.76 1204.29,6056.43 1197.5,6053.5C 1197.5,6012.5 1197.5,5971.5 1197.5,5930.5 Z"/></g>
<g><path style="opacity:0.991" fill="#88cf8c" d="M 1441.5,5929.5 C 1441.5,5969.83 1441.5,6010.17 1441.5,6050.5C 1436.46,6053.35 1431.13,6055.68 1425.5,6057.5C 1425.5,6020.5 1425.5,5983.5 1425.5,5946.5C 1430.86,5940.81 1436.19,5935.14 1441.5,5929.5 Z"/></g>
<g><path style="opacity:0.99" fill="#f06d60" d="M 4374.5,5949.5 C 4374.5,5985.5 4374.5,6021.5 4374.5,6057.5C 4359.24,6060.58 4343.91,6062.92 4328.5,6064.5C 4328.5,6034.5 4328.5,6004.5 4328.5,5974.5C 4345.84,5969.83 4361.17,5961.5 4374.5,5949.5 Z"/></g>
<g><path style="opacity:0.99" fill="#85ce92" d="M 1425.5,5946.5 C 1425.5,5983.5 1425.5,6020.5 1425.5,6057.5C 1420.03,6059.77 1414.36,6061.44 1408.5,6062.5C 1408.5,6027.83 1408.5,5993.17 1408.5,5958.5C 1414.18,5954.47 1419.85,5950.47 1425.5,5946.5 Z"/></g>
<g><path style="opacity:0.99" fill="#5dc4d0" d="M 1218.5,5950.5 C 1224.83,5955.33 1231.49,5959.66 1238.5,5963.5C 1238.5,5997.83 1238.5,6032.17 1238.5,6066.5C 1231.56,6065.07 1224.89,6063.07 1218.5,6060.5C 1218.5,6023.83 1218.5,5987.17 1218.5,5950.5 Z"/></g>
<g><path style="opacity:0.988" fill="#81cd98" d="M 1408.5,5958.5 C 1408.5,5993.17 1408.5,6027.83 1408.5,6062.5C 1402.17,6065.08 1395.51,6066.75 1388.5,6067.5C 1388.5,6034.83 1388.5,6002.17 1388.5,5969.5C 1395.13,5965.85 1401.8,5962.18 1408.5,5958.5 Z"/></g>
<g><path style="opacity:0.99" fill="#61c5cb" d="M 1238.5,5963.5 C 1245.41,5967.12 1252.41,5970.46 1259.5,5973.5C 1259.5,6005.83 1259.5,6038.17 1259.5,6070.5C 1252.44,6069.42 1245.44,6068.09 1238.5,6066.5C 1238.5,6032.17 1238.5,5997.83 1238.5,5963.5 Z"/></g>
<g><path style="opacity:0.99" fill="#7dcc9f" d="M 1388.5,5969.5 C 1388.5,6002.17 1388.5,6034.83 1388.5,6067.5C 1382.64,6069.04 1376.64,6070.37 1370.5,6071.5C 1370.5,6039.5 1370.5,6007.5 1370.5,5975.5C 1376.43,5973.3 1382.43,5971.3 1388.5,5969.5 Z"/></g>
<g><path style="opacity:0.989" fill="#b0d464" d="M 2101.5,5972.5 C 2142.83,5972.33 2184.17,5972.5 2225.5,5973C 2253.14,5975.97 2267.8,5991.3 2269.5,6019C 2268.91,6041.52 2257.91,6056.19 2236.5,6063C 2191.54,6064.47 2146.54,6064.97 2101.5,6064.5C 2101.5,6033.83 2101.5,6003.17 2101.5,5972.5 Z"/></g>
<g><path style="opacity:0.99" fill="#65c6c4" d="M 1259.5,5973.5 C 1266.08,5975.48 1272.75,5977.15 1279.5,5978.5C 1279.5,6010.17 1279.5,6041.83 1279.5,6073.5C 1272.81,6072.65 1266.15,6071.65 1259.5,6070.5C 1259.5,6038.17 1259.5,6005.83 1259.5,5973.5 Z"/></g>
<g><path style="opacity:0.986" fill="#fdc355" d="M 3929.5,5974.5 C 3956.9,5984.29 3967.4,6003.62 3961,6032.5C 3956.13,6048.54 3945.63,6058.54 3929.5,6062.5C 3929.5,6033.17 3929.5,6003.83 3929.5,5974.5 Z"/></g>
<g><path style="opacity:0.993" fill="#f17360" d="M 4328.5,5974.5 C 4328.5,6004.5 4328.5,6034.5 4328.5,6064.5C 4314.83,6064.5 4301.17,6064.5 4287.5,6064.5C 4287.5,6036.17 4287.5,6007.83 4287.5,5979.5C 4301.32,5979.05 4314.99,5977.38 4328.5,5974.5 Z"/></g>
<g><path style="opacity:0.99" fill="#79cba5" d="M 1370.5,5975.5 C 1370.5,6007.5 1370.5,6039.5 1370.5,6071.5C 1364.8,6071.92 1359.13,6072.59 1353.5,6073.5C 1353.5,6042.17 1353.5,6010.83 1353.5,5979.5C 1359.15,5978.17 1364.81,5976.84 1370.5,5975.5 Z"/></g>
<g><path style="opacity:0.991" fill="#75caab" d="M 1353.5,5979.5 C 1353.5,6010.83 1353.5,6042.17 1353.5,6073.5C 1347.51,6073.97 1341.51,6074.3 1335.5,6074.5C 1335.5,6043.5 1335.5,6012.5 1335.5,5981.5C 1341.51,5980.93 1347.51,5980.26 1353.5,5979.5 Z"/></g>
<g><path style="opacity:0.991" fill="#f4855d" d="M 4180.5,5979.5 C 4190.5,5979.5 4200.5,5979.5 4210.5,5979.5C 4210.5,6007.83 4210.5,6036.17 4210.5,6064.5C 4200.5,6064.5 4190.5,6064.5 4180.5,6064.5C 4180.5,6036.17 4180.5,6007.83 4180.5,5979.5 Z"/></g>
<g><path style="opacity:0.991" fill="#f37f5e" d="M 4210.5,5979.5 C 4224.17,5979.5 4237.83,5979.5 4251.5,5979.5C 4251.5,6007.83 4251.5,6036.17 4251.5,6064.5C 4237.83,6064.5 4224.17,6064.5 4210.5,6064.5C 4210.5,6036.17 4210.5,6007.83 4210.5,5979.5 Z"/></g>
<g><path style="opacity:0.991" fill="#f2795f" d="M 4251.5,5979.5 C 4263.5,5979.5 4275.5,5979.5 4287.5,5979.5C 4287.5,6007.83 4287.5,6036.17 4287.5,6064.5C 4275.5,6064.5 4263.5,6064.5 4251.5,6064.5C 4251.5,6036.17 4251.5,6007.83 4251.5,5979.5 Z"/></g>
<g><path style="opacity:0.987" fill="#69c7be" d="M 1279.5,5978.5 C 1285.4,5979.87 1291.4,5980.87 1297.5,5981.5C 1297.5,6012.5 1297.5,6043.5 1297.5,6074.5C 1291.5,6074.17 1285.5,6073.83 1279.5,6073.5C 1279.5,6041.83 1279.5,6010.17 1279.5,5978.5 Z"/></g>
<g><path style="opacity:0.996" fill="#6dc8b8" d="M 1297.5,5981.5 C 1303.48,5982.16 1309.48,5982.5 1315.5,5982.5C 1315.5,6013.17 1315.5,6043.83 1315.5,6074.5C 1309.5,6074.5 1303.5,6074.5 1297.5,6074.5C 1297.5,6043.5 1297.5,6012.5 1297.5,5981.5 Z"/></g>
<g><path style="opacity:0.995" fill="#71c9b1" d="M 1335.5,5981.5 C 1335.5,6012.5 1335.5,6043.5 1335.5,6074.5C 1328.83,6074.5 1322.17,6074.5 1315.5,6074.5C 1315.5,6043.83 1315.5,6013.17 1315.5,5982.5C 1322.19,5982.55 1328.86,5982.21 1335.5,5981.5 Z"/></g>
</svg>
