<?xml version="1.0" standalone="no"?>
<!DOCTYPE svg PUBLIC "-//W3C//DTD SVG 20010904//EN"
 "http://www.w3.org/TR/2001/REC-SVG-20010904/DTD/svg10.dtd">
<svg version="1.0" xmlns="http://www.w3.org/2000/svg"
 width="803.000000pt" height="288.000000pt" viewBox="0 0 803.000000 288.000000"
 preserveAspectRatio="xMidYMid meet">

<g transform="translate(0.000000,288.000000) scale(0.100000,-0.100000)"
fill="#000000" stroke="none">
<path d="M1059 2870 c-317 -17 -506 -54 -654 -125 -111 -54 -170 -104 -233
-200 -128 -190 -166 -450 -166 -1110 0 -409 8 -553 40 -745 70 -418 258 -592
704 -655 333 -46 997 -46 1340 0 370 51 565 161 670 379 43 90 62 156 84 296
47 292 47 1084 1 1417 -29 210 -88 373 -173 479 -113 143 -323 222 -672 254
-157 14 -749 21 -941 10z m42 -647 c87 -28 148 -98 266 -303 103 -180 396
-712 445 -810 54 -107 55 -213 2 -311 -116 -212 -425 -215 -548 -6 -61 106
-158 153 -292 145 -113 -7 -173 -42 -254 -147 -98 -126 -196 -172 -320 -149
-110 20 -190 83 -238 187 -68 148 3 333 156 408 48 24 69 28 137 27 113 0 183
-38 263 -142 34 -45 100 -82 158 -88 67 -7 112 18 142 78 32 64 25 84 -114
323 -64 110 -140 247 -168 305 -49 101 -51 107 -51 190 0 69 5 93 23 128 59
111 167 182 277 182 35 0 87 -8 116 -17z m889 1 c42 -12 67 -29 114 -78 63
-63 175 -252 411 -691 54 -99 121 -223 151 -275 89 -158 101 -259 44 -369 -97
-191 -358 -234 -503 -82 -19 20 -99 151 -177 291 -78 140 -191 338 -250 440
-169 290 -202 362 -208 445 -9 147 85 282 228 326 43 13 134 10 190 -7z"/>
<path d="M3194 1946 c-17 -8 -40 -26 -52 -41 -21 -27 -22 -37 -22 -271 l0
-244 50 0 50 0 0 230 c0 303 2 304 129 23 51 -115 102 -218 114 -230 28 -32
81 -31 110 1 12 14 63 116 113 228 59 132 97 204 107 206 15 3 17 -18 17 -227
l0 -231 55 0 55 0 0 219 c0 120 -3 233 -6 250 -21 103 -162 131 -218 43 -13
-20 -56 -112 -97 -204 -41 -92 -77 -167 -80 -168 -4 0 -44 82 -89 183 -45 100
-89 190 -99 201 -17 20 -71 46 -93 46 -7 -1 -27 -7 -44 -14z"/>
<path d="M4150 1945 c-49 -15 -102 -60 -128 -109 -11 -22 -17 -65 -20 -143 -5
-132 11 -193 61 -240 63 -61 75 -63 312 -63 l215 0 0 50 0 50 -200 0 c-226 0
-251 6 -276 65 -18 45 -18 185 0 229 26 63 37 66 268 66 l208 0 0 55 0 55
-197 -1 c-139 0 -211 -5 -243 -14z"/>
<path d="M4842 1950 c-59 -14 -112 -57 -138 -113 -21 -46 -24 -66 -24 -167 0
-90 4 -124 19 -155 19 -43 78 -100 118 -116 13 -5 111 -9 216 -9 162 0 196 3
216 16 38 27 51 74 51 189 l0 105 -160 0 -160 0 0 -50 0 -49 107 -3 106 -3 -1
-42 c0 -24 -1 -47 -1 -53 -1 -6 -64 -10 -170 -10 -152 0 -171 2 -193 20 -41
32 -50 69 -46 180 3 100 3 102 36 131 l32 29 205 0 205 0 0 55 0 55 -192 -1
c-106 -1 -208 -5 -226 -9z"/>
<path d="M5642 1948 c-83 -18 -108 -56 -210 -316 -51 -128 -92 -235 -92 -238
0 -2 24 -4 53 -4 l54 0 83 210 c88 225 105 250 165 250 60 0 76 -24 164 -249
l83 -211 54 0 c30 0 54 2 54 4 0 16 -185 465 -201 488 -40 55 -129 84 -207 66z"/>
<path d="M6010 1905 l0 -55 130 0 131 0 -3 -230 -3 -230 53 0 52 0 0 230 0
230 125 0 125 0 0 55 0 55 -305 0 -305 0 0 -55z"/>
<path d="M6842 1950 c-57 -13 -108 -55 -136 -111 -24 -48 -26 -64 -26 -168 0
-91 4 -125 19 -156 19 -43 78 -100 118 -116 13 -5 98 -9 189 -9 143 0 170 3
203 19 51 27 98 82 112 133 16 61 8 255 -13 294 -27 50 -79 94 -132 109 -53
16 -274 19 -334 5z m337 -116 c36 -25 51 -75 51 -164 0 -159 -26 -180 -224
-180 -74 0 -146 4 -160 10 -48 18 -66 64 -66 168 0 100 12 138 52 166 33 24
313 23 347 0z"/>
<path d="M7484 1946 c-63 -27 -64 -35 -64 -308 l0 -248 50 0 50 0 2 228 3 227
26 3 c14 2 30 -3 36 -10 6 -7 46 -92 89 -188 42 -96 86 -187 96 -203 28 -39
69 -57 134 -57 50 0 59 3 90 34 l34 34 0 251 0 251 -50 0 -50 0 0 -219 c0
-121 -3 -226 -6 -235 -9 -24 -51 -20 -68 7 -9 12 -52 103 -96 202 -46 102 -91
190 -105 202 -25 22 -84 43 -120 43 -11 -1 -34 -7 -51 -14z"/>
<path d="M4210 1670 l0 -50 190 0 190 0 0 50 0 50 -190 0 -190 0 0 -50z"/>
<path d="M3715 1202 c-48 -10 -75 -78 -43 -110 9 -9 6 -18 -15 -40 -73 -76 17
-169 128 -132 27 9 40 9 48 1 11 -11 67 -16 67 -6 0 3 -12 16 -26 29 -22 18
-25 26 -16 42 5 10 12 35 13 54 3 30 1 35 -18 38 -20 3 -23 -1 -23 -27 0 -41
-12 -45 -44 -12 l-26 27 25 24 c55 52 8 128 -70 112z m48 -54 c8 -12 7 -21 -2
-32 -18 -22 -38 -20 -51 5 -22 40 29 66 53 27z m14 -190 c-17 -11 -55 -10 -78
2 -23 13 -25 52 -4 74 14 13 19 10 54 -27 27 -28 36 -44 28 -49z"/>
<path d="M4110 1200 c-74 -18 -93 -95 -33 -136 18 -12 53 -25 78 -28 52 -8 72
-32 51 -62 -20 -27 -85 -25 -104 4 -9 14 -25 22 -43 22 -29 0 -29 0 -14 -30
50 -96 225 -71 225 33 0 34 -37 63 -104 81 -64 16 -80 30 -65 58 14 25 71 24
94 -2 19 -21 65 -28 65 -9 0 16 -56 69 -73 69 -9 0 -21 2 -29 4 -7 2 -29 0
-48 -4z"/>
<path d="M5380 1200 c-19 -5 -43 -18 -52 -30 -42 -52 -6 -109 83 -130 84 -20
102 -45 54 -76 -29 -19 -68 -13 -93 16 -9 11 -29 20 -44 20 l-29 0 16 -31 c55
-105 249 -58 221 54 -7 28 -50 54 -105 63 -53 9 -75 28 -61 55 15 26 74 26 97
-1 10 -11 28 -20 40 -20 26 0 27 1 12 33 -18 41 -78 60 -139 47z"/>
<path d="M5690 1198 c-126 -35 -144 -210 -28 -269 110 -56 241 27 225 144 -13
94 -104 152 -197 125z m111 -67 c62 -62 22 -171 -63 -171 -51 0 -98 43 -98 90
0 96 97 145 161 81z"/>
<path d="M7013 1200 c-73 -17 -117 -72 -115 -147 0 -56 28 -99 77 -123 101
-49 208 3 222 109 14 104 -79 185 -184 161z m98 -69 c21 -22 29 -39 29 -66 0
-67 -33 -104 -91 -105 -47 0 -86 31 -95 76 -18 98 88 163 157 95z"/>
<path d="M3147 1068 c-26 -73 -49 -137 -50 -143 -1 -5 9 -11 23 -13 21 -2 29
3 40 30 14 31 18 33 73 36 58 3 58 3 72 -32 12 -28 21 -36 40 -36 14 0 25 6
25 13 -1 6 -23 71 -49 142 l-48 130 -39 3 -39 3 -48 -133z m106 30 c8 -24 18
-51 22 -60 6 -16 1 -18 -39 -18 -25 0 -46 2 -46 4 0 3 20 62 35 104 7 20 12
14 28 -30z"/>
<path d="M3422 1058 l3 -143 25 0 25 0 3 143 3 142 -31 0 -31 0 3 -142z"/>
<path d="M4300 1180 c0 -17 7 -20 45 -20 l44 0 3 -122 3 -123 25 0 25 0 3 123
3 122 44 0 c38 0 45 3 45 20 0 19 -7 20 -120 20 -113 0 -120 -1 -120 -20z"/>
<path d="M4590 1055 l0 -146 103 3 c97 3 102 4 105 25 3 21 -1 22 -74 25 l-78
3 0 35 0 35 67 3 c58 3 67 5 67 22 0 17 -9 19 -67 22 l-67 3 0 35 0 35 72 3
c64 3 72 5 72 22 0 19 -7 20 -100 20 l-100 0 0 -145z"/>
<path d="M4857 1058 l2 -143 25 -3 25 -3 3 103 3 103 35 -67 c47 -92 68 -93
112 -3 18 36 35 65 38 65 3 0 5 -44 5 -97 0 -98 0 -98 25 -98 l25 0 3 143 3
142 -39 0 c-37 0 -38 -1 -76 -77 l-38 -78 -39 78 c-38 75 -40 77 -77 77 l-37
0 2 -142z"/>
<path d="M5940 1055 l0 -146 103 3 c97 3 102 4 105 26 3 21 1 22 -77 22 l-81
0 0 120 0 120 -25 0 -25 0 0 -145z"/>
<path d="M6200 1105 c0 -118 15 -160 64 -180 44 -19 77 -19 121 -1 51 22 65
58 65 176 l0 100 -30 0 -30 0 0 -103 c0 -116 -10 -137 -67 -137 -52 0 -63 24
-63 138 l0 102 -30 0 -30 0 0 -95z"/>
<path d="M6500 1180 c0 -17 7 -20 45 -20 l45 0 0 -126 0 -125 28 3 27 3 3 123
3 122 44 0 c38 0 45 3 45 20 0 19 -7 20 -120 20 -113 0 -120 -1 -120 -20z"/>
<path d="M6790 1054 l0 -145 28 3 27 3 3 143 3 142 -31 0 -30 0 0 -146z"/>
<path d="M7252 1058 l3 -143 25 0 c25 0 25 0 25 93 0 50 2 92 5 92 3 -1 36
-44 73 -96 55 -76 73 -95 90 -92 21 3 22 8 25 146 l3 142 -32 0 -31 0 4 -95
c1 -52 1 -95 -2 -95 -3 1 -34 43 -70 95 -56 81 -69 95 -93 95 l-28 0 3 -142z"/>
</g>
</svg>
