<?xml version="1.0" standalone="no"?>
<!DOCTYPE svg PUBLIC "-//W3C//DTD SVG 20010904//EN"
 "http://www.w3.org/TR/2001/REC-SVG-20010904/DTD/svg10.dtd">
<svg version="1.0" xmlns="http://www.w3.org/2000/svg"
 width="2117.000000pt" height="762.000000pt" viewBox="0 0 2117.000000 762.000000"
 preserveAspectRatio="xMidYMid meet">

<g transform="translate(0.000000,762.000000) scale(0.100000,-0.100000)"
fill="#000000" stroke="none">
<path d="M3060 7580 c-864 -34 -1412 -123 -1814 -295 -710 -304 -1008 -894
-1095 -2170 -33 -473 -44 -1676 -21 -2205 47 -1094 172 -1648 468 -2078 68
-100 252 -278 362 -351 239 -159 552 -270 958 -340 95 -17 205 -33 245 -36
l72 -5 84 97 c46 54 186 206 311 338 423 446 552 621 665 900 64 159 87 271
92 457 6 185 -3 270 -47 443 -87 343 -314 768 -617 1154 -58 74 -58 74 -188
130 -681 296 -1158 687 -1360 1114 -74 157 -90 227 -90 407 0 176 14 239 85
380 129 256 400 476 780 633 131 53 425 145 436 135 1 -2 -14 -22 -36 -44 -33
-35 -50 -44 -127 -63 -48 -13 -142 -44 -208 -69 -334 -125 -567 -292 -710
-506 -76 -115 -113 -215 -130 -346 l-5 -45 23 60 c27 71 75 157 116 209 45 57
102 118 106 114 2 -1 -3 -28 -11 -58 -8 -30 -14 -86 -14 -125 1 -465 592 -956
1540 -1277 815 -276 1753 -376 2540 -272 270 36 577 121 765 213 274 134 453
321 496 521 l12 55 13 -30 c21 -51 36 -162 32 -245 -1 -43 0 -76 3 -74 4 2 15
36 25 76 27 106 25 277 -5 383 -28 100 -88 223 -154 317 -103 148 -312 341
-498 462 -65 42 -79 57 -93 94 -9 25 -15 47 -13 48 6 6 179 -113 284 -197 319
-252 526 -535 605 -827 30 -111 29 -306 -1 -417 -82 -307 -324 -557 -721 -749
-323 -156 -776 -266 -1190 -291 -188 -11 -179 -7 -308 -104 -163 -123 -278
-226 -383 -344 -330 -375 -516 -811 -537 -1266 -17 -344 28 -572 168 -852 72
-144 131 -237 257 -405 50 -67 101 -141 114 -164 l24 -43 155 7 c993 42 1535
122 1968 292 740 290 1047 814 1147 1959 53 612 58 2057 10 2777 -87 1287
-357 1879 -1000 2194 -374 182 -814 267 -1630 315 -241 14 -1657 20 -1955 9z
m1270 -615 c654 -93 1223 -514 1509 -1116 262 -551 253 -1191 -23 -1739 l-63
-125 -80 -16 c-232 -47 -625 -74 -928 -65 -888 29 -1743 228 -2427 566 -220
109 -203 92 -223 218 -121 766 224 1542 880 1975 234 154 514 260 795 301 130
19 429 19 560 1z"/>
<path d="M8497 5160 c-101 -26 -192 -104 -226 -196 -20 -53 -21 -73 -21 -665
l0 -610 133 3 132 3 3 586 c2 567 3 587 22 604 12 11 28 15 42 12 19 -5 41
-46 120 -219 432 -946 423 -929 492 -965 42 -22 150 -22 192 0 72 38 76 44
365 682 137 300 226 485 239 494 16 11 26 11 45 3 l25 -11 2 -593 3 -593 133
-3 133 -3 -3 628 c-3 625 -3 628 -25 669 -87 164 -269 226 -430 148 -99 -48
-117 -78 -358 -609 -121 -267 -222 -485 -225 -485 -3 1 -102 217 -220 481
-196 439 -220 486 -267 539 -34 37 -71 65 -103 79 -58 25 -149 34 -203 21z"/>
<path d="M11019 5159 c-199 -29 -373 -181 -441 -384 -22 -67 -23 -83 -23 -345
0 -239 2 -283 18 -335 60 -193 209 -340 397 -390 45 -12 152 -15 588 -15 l532
0 0 135 0 134 -538 3 -539 3 -48 30 c-63 39 -110 101 -131 171 -13 45 -15 97
-12 287 3 221 4 234 27 277 32 61 76 107 136 138 l50 27 528 3 527 3 0 134 0
135 -507 -1 c-280 -1 -533 -5 -564 -10z"/>
<path d="M12794 5160 c-203 -30 -381 -181 -446 -379 -19 -59 -22 -93 -26 -314
-5 -292 3 -352 59 -469 69 -141 205 -253 355 -292 52 -13 134 -16 520 -16
l459 0 50 24 c63 29 126 97 151 162 17 44 19 78 19 334 l0 285 -417 3 -418 2
0 -135 0 -135 285 0 285 0 0 -113 c0 -86 -4 -118 -16 -135 l-15 -22 -417 0
c-384 0 -420 2 -458 19 -58 27 -111 77 -142 135 -27 51 -27 53 -30 289 -4 282
2 316 73 395 25 28 67 61 93 74 l47 23 518 3 517 3 0 134 0 135 -497 -1 c-274
-1 -521 -5 -549 -9z"/>
<path d="M14886 5159 c-157 -26 -301 -130 -371 -269 -12 -25 -123 -297 -245
-605 -122 -308 -227 -568 -232 -578 -8 -16 0 -17 139 -15 l147 3 217 543 c231
578 236 589 319 632 94 48 210 30 284 -44 40 -40 58 -81 261 -589 l218 -547
145 0 c111 0 143 3 139 13 -3 6 -107 269 -232 582 -125 314 -239 593 -253 620
-43 80 -135 166 -222 207 -107 51 -204 66 -314 47z"/>
<path d="M15800 5035 l0 -135 330 0 330 0 0 -605 0 -605 135 0 135 0 0 605 0
605 335 0 335 0 0 135 0 135 -800 0 -800 0 0 -135z"/>
<path d="M18009 5160 c-115 -18 -229 -80 -315 -171 -60 -65 -95 -122 -126
-209 -21 -62 -23 -79 -23 -345 0 -244 2 -288 18 -340 60 -193 209 -340 397
-390 80 -21 780 -21 860 0 200 53 357 215 405 416 18 77 21 501 4 595 -33 187
-179 353 -370 422 l-74 26 -360 2 c-198 2 -385 -1 -416 -6z m785 -283 c63 -30
133 -102 156 -163 18 -49 20 -78 20 -283 0 -259 -8 -301 -66 -369 -19 -23 -57
-54 -82 -70 l-47 -27 -386 0 -386 0 -48 30 c-63 39 -110 101 -131 171 -13 45
-15 97 -12 287 3 221 4 234 27 277 42 82 113 140 196 161 17 4 185 7 375 6
307 -2 349 -4 384 -20z"/>
<path d="M19678 5157 c-89 -25 -155 -84 -195 -173 -17 -36 -18 -90 -21 -666
l-3 -628 136 0 135 0 0 570 c0 637 -1 623 64 636 52 9 93 -4 120 -39 22 -29
89 -173 348 -752 118 -263 158 -318 273 -378 56 -29 69 -31 182 -35 113 -4
126 -2 175 21 64 29 119 83 150 146 l23 46 3 633 3 632 -136 0 -135 0 0 -576
c0 -575 -2 -605 -34 -626 -6 -4 -34 -8 -62 -8 -57 0 -82 17 -113 78 -10 20
-101 219 -201 442 -100 223 -198 435 -217 473 -45 85 -122 158 -201 187 -72
28 -225 36 -294 17z"/>
<path d="M11092 4428 l3 -133 498 -3 497 -2 0 135 0 135 -500 0 -501 0 3 -132z"/>
<path d="M8362 3201 c-60 -21 -118 -70 -138 -118 -22 -52 -18 -134 9 -174 43
-64 111 -94 300 -134 92 -19 128 -45 129 -92 4 -132 -240 -156 -307 -31 l-20
38 -73 0 -72 0 6 -27 c18 -81 106 -169 192 -193 54 -15 191 -12 246 4 72 22
122 61 151 119 58 116 9 230 -120 281 -22 9 -84 25 -138 36 -135 27 -177 51
-177 100 0 63 79 108 167 96 54 -7 86 -28 112 -72 20 -33 22 -34 86 -34 74 0
78 6 46 76 -24 53 -93 111 -155 129 -68 20 -179 19 -244 -4z"/>
<path d="M11693 3195 c-105 -53 -129 -164 -58 -269 14 -20 25 -39 25 -41 0 -2
-21 -19 -46 -37 -64 -46 -95 -103 -95 -172 0 -141 117 -224 305 -214 64 3 96
10 137 31 l54 26 25 -24 c24 -23 34 -25 110 -25 l84 0 -68 69 -69 70 18 37
c27 57 45 133 45 192 l0 52 -54 0 -53 0 -6 -53 c-3 -30 -11 -73 -18 -96 l-12
-42 -83 82 -83 83 32 19 c82 49 117 102 117 175 0 95 -70 154 -190 160 -55 3
-73 -1 -117 -23z m161 -86 c20 -16 26 -29 26 -57 -1 -41 -16 -66 -57 -94 -40
-26 -48 -23 -83 29 -36 55 -34 85 6 121 31 28 73 28 108 1z m76 -509 c0 -13
-79 -40 -118 -40 -101 0 -162 48 -162 127 0 40 5 50 41 87 l42 41 98 -104 c55
-57 99 -107 99 -111z"/>
<path d="M14128 3203 c-58 -19 -120 -70 -142 -117 -20 -42 -21 -115 -2 -161
28 -67 130 -117 293 -145 116 -19 172 -73 141 -136 -22 -46 -62 -68 -131 -72
-80 -4 -142 25 -172 80 l-20 38 -73 0 c-71 0 -73 -1 -67 -22 29 -95 84 -155
175 -189 46 -17 72 -20 156 -17 89 3 108 7 160 33 39 20 68 45 89 73 27 39 30
52 30 117 0 67 -3 76 -31 112 -42 52 -119 88 -242 112 -118 24 -158 42 -174
77 -10 22 -9 32 7 62 25 46 78 66 149 58 59 -7 91 -26 118 -72 19 -33 22 -34
84 -34 72 0 75 4 49 68 -23 55 -82 109 -142 132 -66 25 -186 26 -255 3z"/>
<path d="M14959 3206 c-106 -28 -210 -121 -250 -224 -33 -84 -32 -206 2 -288
68 -163 200 -240 399 -232 84 3 105 8 163 36 122 60 194 173 205 319 12 181
-96 336 -272 388 -59 18 -183 18 -247 1z m196 -117 c54 -14 118 -67 148 -123
31 -58 31 -193 0 -251 -46 -87 -123 -135 -215 -135 -75 0 -118 15 -165 55 -60
51 -87 114 -87 205 0 62 5 84 27 127 55 107 166 154 292 122z"/>
<path d="M18368 3201 c-141 -45 -231 -149 -258 -298 -12 -72 -2 -154 30 -229
29 -67 110 -146 183 -180 57 -27 71 -29 182 -29 109 0 125 2 177 27 131 61
208 177 216 322 7 141 -40 250 -143 328 -97 74 -261 99 -387 59z m223 -116
c198 -70 216 -385 27 -479 -190 -95 -399 70 -358 283 31 163 178 250 331 196z"/>
<path d="M8880 3150 l0 -60 125 0 126 0 -3 -310 -3 -310 73 0 72 0 0 310 0
310 125 0 125 0 0 60 0 60 -320 0 -320 0 0 -60z"/>
<path d="M9640 2840 l0 -370 273 0 272 0 0 55 0 55 -197 0 -198 0 0 105 0 105
170 0 170 0 0 55 0 55 -170 0 -170 0 0 95 0 95 195 0 195 0 0 60 0 60 -270 0
-270 0 0 -370z"/>
<path d="M10330 2840 l0 -370 75 0 75 0 1 268 0 267 90 -178 90 -178 70 3 71
3 87 167 c48 93 89 170 92 172 2 2 3 -115 1 -260 l-3 -264 75 0 76 0 0 370 0
370 -98 0 -97 0 -101 -202 -101 -203 -102 203 -101 202 -100 0 -100 0 0 -370z"/>
<path d="M12831 3188 c-4 -13 -65 -177 -135 -364 -69 -188 -126 -344 -126
-348 0 -3 33 -6 74 -6 l74 0 27 75 28 75 165 -2 165 -3 26 -72 26 -73 76 0 77
0 -85 228 c-47 125 -108 290 -137 367 l-52 140 -97 3 c-93 3 -98 2 -106 -20z
m168 -284 c28 -77 51 -146 51 -152 0 -9 -35 -12 -115 -12 -63 0 -115 3 -115 6
0 23 116 321 121 311 4 -7 30 -75 58 -153z"/>
<path d="M13430 2840 l0 -370 70 0 70 0 0 370 0 370 -70 0 -70 0 0 -370z"/>
<path d="M15610 2840 l0 -370 270 0 270 0 0 55 0 55 -197 2 -198 3 -3 313 -2
312 -70 0 -70 0 0 -370z"/>
<path d="M16302 2933 l3 -278 29 -53 c58 -103 155 -147 310 -140 141 7 222 54
270 158 19 42 21 66 24 318 l3 272 -75 0 -76 0 0 -256 c0 -288 -4 -306 -68
-346 -48 -30 -153 -31 -201 -3 -67 40 -71 59 -71 347 l0 258 -76 0 -75 0 3
-277z"/>
<path d="M17062 3153 l3 -58 123 -3 122 -3 0 -309 0 -310 75 0 75 0 0 310 0
309 123 3 122 3 3 58 3 57 -326 0 -326 0 3 -57z"/>
<path d="M17830 2840 l0 -370 75 0 75 0 0 370 0 370 -75 0 -75 0 0 -370z"/>
<path d="M19030 2840 l0 -370 75 0 75 0 0 247 0 247 183 -247 182 -246 68 -1
67 0 0 370 0 370 -70 0 -70 0 -2 -252 -3 -251 -183 251 -183 252 -70 0 -69 0
0 -370z"/>
</g>
</svg>
